<svg xmlns="http://www.w3.org/2000/svg" xmlns:xlink="http://www.w3.org/1999/xlink" width="250" zoomAndPan="magnify" viewBox="0 0 187.5 74.999997" height="100" preserveAspectRatio="xMidYMid meet" version="1.0"><defs><g/><clipPath id="cadbc6edbd"><path d="M 48.3125 23.945312 L 73.746094 23.945312 L 73.746094 49.378906 L 48.3125 49.378906 Z M 48.3125 23.945312 " clip-rule="nonzero"/></clipPath><clipPath id="07a75b1d93"><path d="M 61 36 L 73.746094 36 L 73.746094 49.378906 L 61 49.378906 Z M 61 36 " clip-rule="nonzero"/></clipPath><clipPath id="5791cadb29"><path d="M 48.3125 23.945312 L 73.746094 23.945312 L 73.746094 49.378906 L 48.3125 49.378906 Z M 48.3125 23.945312 " clip-rule="nonzero"/></clipPath><clipPath id="a2b68a80b1"><rect x="0" width="52" y="0" height="10"/></clipPath><clipPath id="8089a585ac"><path d="M 20 3 L 23 3 L 23 6.929688 L 20 6.929688 Z M 20 3 " clip-rule="nonzero"/></clipPath><clipPath id="6c7ed99f46"><path d="M 22 3 L 25 3 L 25 6.929688 L 22 6.929688 Z M 22 3 " clip-rule="nonzero"/></clipPath><clipPath id="6dbe94127f"><path d="M 64 3 L 66.894531 3 L 66.894531 6 L 64 6 Z M 64 3 " clip-rule="nonzero"/></clipPath><clipPath id="dea23442a7"><rect x="0" width="67" y="0" height="7"/></clipPath></defs><g clip-path="url(#cadbc6edbd)"><path fill="#3dbdec" d="M 67.386719 23.945312 C 63.875 23.945312 61.03125 26.792969 61.03125 30.304688 L 61.03125 36.660156 L 54.671875 36.660156 C 51.160156 36.660156 48.3125 39.507812 48.3125 43.019531 C 48.3125 46.53125 51.160156 49.375 54.671875 49.375 L 61.03125 49.375 L 61.03125 49.378906 L 73.746094 49.378906 L 73.746094 30.304688 C 73.746094 26.792969 70.898438 23.945312 67.386719 23.945312 Z M 67.386719 23.945312 " fill-opacity="1" fill-rule="nonzero"/></g><g clip-path="url(#07a75b1d93)"><path fill="#1f2b5b" d="M 61.03125 36.660156 L 73.746094 36.660156 L 73.746094 49.378906 L 61.03125 49.378906 Z M 61.03125 36.660156 " fill-opacity="1" fill-rule="nonzero"/></g><g clip-path="url(#5791cadb29)"><path fill="#3dbdec" d="M 73.746094 30.304688 L 73.746094 36.660156 L 61.03125 36.660156 L 61.03125 30.304688 C 61.03125 26.792969 63.875 23.945312 67.386719 23.945312 C 70.898438 23.945312 73.746094 26.792969 73.746094 30.304688 Z M 48.3125 43.019531 C 48.3125 46.53125 51.160156 49.375 54.671875 49.375 L 61.03125 49.375 L 61.03125 36.660156 L 54.671875 36.660156 C 51.160156 36.660156 48.3125 39.507812 48.3125 43.019531 Z M 71.175781 41.734375 L 68.675781 41.734375 L 68.675781 39.234375 L 66.101562 39.234375 L 66.101562 41.734375 L 63.601562 41.734375 L 63.601562 44.304688 L 66.101562 44.304688 L 66.101562 46.804688 L 68.675781 46.804688 L 68.675781 44.304688 L 71.175781 44.304688 Z M 71.175781 41.734375 " fill-opacity="1" fill-rule="nonzero"/></g><g transform="matrix(1, 0, 0, 1, 93, 29)"><g clip-path="url(#a2b68a80b1)"><g fill="#1f2b5b" fill-opacity="1"><g transform="translate(0.768774, 8.293126)"><g><path d="M 0.4375 -0.125 L 0.4375 -5.734375 C 0.4375 -5.804688 0.476562 -5.84375 0.5625 -5.84375 L 2 -5.84375 C 2.082031 -5.84375 2.125 -5.804688 2.125 -5.734375 L 2.125 -3.21875 C 2.125 -3.132812 2.164062 -3.09375 2.25 -3.09375 L 2.390625 -3.09375 C 2.460938 -3.09375 2.5 -3.132812 2.5 -3.21875 L 2.5 -3.34375 C 2.5 -3.425781 2.539062 -3.46875 2.625 -3.46875 L 2.75 -3.46875 C 2.832031 -3.46875 2.875 -3.507812 2.875 -3.59375 L 2.875 -5.734375 C 2.875 -5.804688 2.914062 -5.84375 3 -5.84375 L 4.4375 -5.84375 C 4.519531 -5.84375 4.5625 -5.804688 4.5625 -5.734375 L 4.5625 -0.125 C 4.5625 -0.0390625 4.519531 0 4.4375 0 L 3 0 C 2.914062 0 2.875 -0.0390625 2.875 -0.125 L 2.875 -2.640625 C 2.875 -2.710938 2.832031 -2.75 2.75 -2.75 L 2.625 -2.75 C 2.539062 -2.75 2.5 -2.710938 2.5 -2.640625 L 2.5 -2.5 C 2.5 -2.414062 2.460938 -2.375 2.390625 -2.375 L 2.25 -2.375 C 2.164062 -2.375 2.125 -2.335938 2.125 -2.265625 L 2.125 -0.125 C 2.125 -0.0390625 2.082031 0 2 0 L 0.5625 0 C 0.476562 0 0.4375 -0.0390625 0.4375 -0.125 Z M 0.4375 -0.125 "/></g></g></g><g fill="#1f2b5b" fill-opacity="1"><g transform="translate(5.762032, 8.293126)"><g><path d="M 0.4375 -0.125 L 0.4375 -5.734375 C 0.4375 -5.804688 0.476562 -5.84375 0.5625 -5.84375 L 4.0625 -5.84375 C 4.144531 -5.84375 4.1875 -5.804688 4.1875 -5.734375 L 4.1875 -4.28125 C 4.1875 -4.195312 4.144531 -4.15625 4.0625 -4.15625 L 3 -4.15625 C 2.914062 -4.15625 2.875 -4.195312 2.875 -4.28125 L 2.875 -4.421875 C 2.875 -4.492188 2.832031 -4.53125 2.75 -4.53125 L 2.625 -4.53125 C 2.539062 -4.53125 2.5 -4.570312 2.5 -4.65625 L 2.5 -5.359375 C 2.5 -5.429688 2.457031 -5.46875 2.375 -5.46875 L 2.25 -5.46875 C 2.164062 -5.46875 2.125 -5.429688 2.125 -5.359375 L 2.125 -3.421875 C 2.125 -3.335938 2.164062 -3.296875 2.25 -3.296875 L 3.453125 -3.296875 C 3.535156 -3.296875 3.578125 -3.257812 3.578125 -3.1875 L 3.578125 -2.671875 C 3.578125 -2.585938 3.535156 -2.546875 3.453125 -2.546875 L 2.25 -2.546875 C 2.164062 -2.546875 2.125 -2.507812 2.125 -2.4375 L 2.125 -0.5 C 2.125 -0.414062 2.164062 -0.375 2.25 -0.375 L 2.375 -0.375 C 2.457031 -0.375 2.5 -0.414062 2.5 -0.5 L 2.5 -1.1875 C 2.5 -1.269531 2.539062 -1.3125 2.625 -1.3125 L 2.75 -1.3125 C 2.832031 -1.3125 2.875 -1.351562 2.875 -1.4375 L 2.875 -1.5625 C 2.875 -1.644531 2.914062 -1.6875 3 -1.6875 L 4.0625 -1.6875 C 4.144531 -1.6875 4.1875 -1.644531 4.1875 -1.5625 L 4.1875 -0.125 C 4.1875 -0.0390625 4.144531 0 4.0625 0 L 0.5625 0 C 0.476562 0 0.4375 -0.0390625 0.4375 -0.125 Z M 0.4375 -0.125 "/></g></g></g><g fill="#1f2b5b" fill-opacity="1"><g transform="translate(10.255965, 8.293126)"><g><path d="M 0.4375 -0.125 L 0.4375 -4.234375 C 0.4375 -4.304688 0.476562 -4.34375 0.5625 -4.34375 L 0.765625 -4.34375 C 0.835938 -4.34375 0.875 -4.382812 0.875 -4.46875 L 0.875 -4.609375 C 0.875 -4.679688 0.914062 -4.71875 1 -4.71875 L 1.140625 -4.71875 C 1.210938 -4.71875 1.25 -4.757812 1.25 -4.84375 L 1.25 -4.984375 C 1.25 -5.054688 1.289062 -5.09375 1.375 -5.09375 L 1.515625 -5.09375 C 1.585938 -5.09375 1.625 -5.132812 1.625 -5.21875 L 1.625 -5.359375 C 1.625 -5.429688 1.664062 -5.46875 1.75 -5.46875 L 1.8125 -5.46875 C 1.894531 -5.46875 1.9375 -5.507812 1.9375 -5.59375 L 1.9375 -5.734375 C 1.9375 -5.804688 1.972656 -5.84375 2.046875 -5.84375 L 4.0625 -5.84375 C 4.144531 -5.84375 4.1875 -5.804688 4.1875 -5.734375 L 4.1875 -5.59375 C 4.1875 -5.507812 4.226562 -5.46875 4.3125 -5.46875 L 4.4375 -5.46875 C 4.519531 -5.46875 4.5625 -5.429688 4.5625 -5.359375 L 4.5625 -0.125 C 4.5625 -0.0390625 4.519531 0 4.4375 0 L 3 0 C 2.914062 0 2.875 -0.0390625 2.875 -0.125 L 2.875 -2.109375 C 2.875 -2.179688 2.832031 -2.21875 2.75 -2.21875 L 2.625 -2.21875 C 2.539062 -2.21875 2.5 -2.179688 2.5 -2.109375 L 2.5 -1.96875 C 2.5 -1.882812 2.457031 -1.84375 2.375 -1.84375 L 2.25 -1.84375 C 2.164062 -1.84375 2.125 -1.804688 2.125 -1.734375 L 2.125 -0.125 C 2.125 -0.0390625 2.082031 0 2 0 L 0.5625 0 C 0.476562 0 0.4375 -0.0390625 0.4375 -0.125 Z M 2.25 -2.5625 L 2.375 -2.5625 C 2.457031 -2.5625 2.5 -2.601562 2.5 -2.6875 L 2.5 -2.8125 C 2.5 -2.894531 2.539062 -2.9375 2.625 -2.9375 L 2.75 -2.9375 C 2.832031 -2.9375 2.875 -2.976562 2.875 -3.0625 L 2.875 -5.359375 C 2.875 -5.429688 2.832031 -5.46875 2.75 -5.46875 L 2.625 -5.46875 C 2.539062 -5.46875 2.5 -5.429688 2.5 -5.359375 L 2.5 -5.21875 C 2.5 -5.132812 2.457031 -5.09375 2.375 -5.09375 L 2.25 -5.09375 C 2.164062 -5.09375 2.125 -5.054688 2.125 -4.984375 L 2.125 -2.6875 C 2.125 -2.601562 2.164062 -2.5625 2.25 -2.5625 Z M 2.25 -2.5625 "/></g></g></g><g fill="#1f2b5b" fill-opacity="1"><g transform="translate(15.249223, 8.293126)"><g><path d="M 0.4375 -0.125 L 0.4375 -5.734375 C 0.4375 -5.804688 0.476562 -5.84375 0.5625 -5.84375 L 2 -5.84375 C 2.082031 -5.84375 2.125 -5.804688 2.125 -5.734375 L 2.125 -0.5 C 2.125 -0.414062 2.164062 -0.375 2.25 -0.375 L 2.375 -0.375 C 2.457031 -0.375 2.5 -0.414062 2.5 -0.5 L 2.5 -1.1875 C 2.5 -1.269531 2.539062 -1.3125 2.625 -1.3125 L 2.765625 -1.3125 C 2.835938 -1.3125 2.875 -1.351562 2.875 -1.4375 L 2.875 -1.5625 C 2.875 -1.644531 2.914062 -1.6875 3 -1.6875 L 4.0625 -1.6875 C 4.144531 -1.6875 4.1875 -1.644531 4.1875 -1.5625 L 4.1875 -0.5 C 4.1875 -0.414062 4.144531 -0.375 4.0625 -0.375 L 3.9375 -0.375 C 3.851562 -0.375 3.8125 -0.332031 3.8125 -0.25 L 3.8125 -0.125 C 3.8125 -0.0390625 3.769531 0 3.6875 0 L 0.5625 0 C 0.476562 0 0.4375 -0.0390625 0.4375 -0.125 Z M 0.4375 -0.125 "/></g></g></g><g fill="#1f2b5b" fill-opacity="1"><g transform="translate(19.618325, 8.293126)"><g><path d="M 1.6875 -0.125 L 1.6875 -5.359375 C 1.6875 -5.441406 1.648438 -5.484375 1.578125 -5.484375 L 1.4375 -5.484375 C 1.351562 -5.484375 1.3125 -5.441406 1.3125 -5.359375 L 1.3125 -4.65625 C 1.3125 -4.570312 1.269531 -4.53125 1.1875 -4.53125 L 1.0625 -4.53125 C 0.976562 -4.53125 0.9375 -4.492188 0.9375 -4.421875 L 0.9375 -4.28125 C 0.9375 -4.195312 0.894531 -4.15625 0.8125 -4.15625 L 0.3125 -4.15625 C 0.226562 -4.15625 0.1875 -4.195312 0.1875 -4.28125 L 0.1875 -5.734375 C 0.1875 -5.804688 0.226562 -5.84375 0.3125 -5.84375 L 4.765625 -5.84375 C 4.847656 -5.84375 4.890625 -5.804688 4.890625 -5.734375 L 4.890625 -4.28125 C 4.890625 -4.195312 4.847656 -4.15625 4.765625 -4.15625 L 4.25 -4.15625 C 4.175781 -4.15625 4.140625 -4.195312 4.140625 -4.28125 L 4.140625 -4.421875 C 4.140625 -4.492188 4.097656 -4.53125 4.015625 -4.53125 L 3.875 -4.53125 C 3.800781 -4.53125 3.765625 -4.570312 3.765625 -4.65625 L 3.765625 -5.359375 C 3.765625 -5.441406 3.722656 -5.484375 3.640625 -5.484375 L 3.5 -5.484375 C 3.414062 -5.484375 3.375 -5.441406 3.375 -5.359375 L 3.375 -0.125 C 3.375 -0.0390625 3.335938 0 3.265625 0 L 1.8125 0 C 1.726562 0 1.6875 -0.0390625 1.6875 -0.125 Z M 1.6875 -0.125 "/></g></g></g><g fill="#1f2b5b" fill-opacity="1"><g transform="translate(24.686481, 8.293126)"><g><path d="M 0.4375 -0.125 L 0.4375 -5.734375 C 0.4375 -5.804688 0.476562 -5.84375 0.5625 -5.84375 L 2 -5.84375 C 2.082031 -5.84375 2.125 -5.804688 2.125 -5.734375 L 2.125 -3.21875 C 2.125 -3.132812 2.164062 -3.09375 2.25 -3.09375 L 2.390625 -3.09375 C 2.460938 -3.09375 2.5 -3.132812 2.5 -3.21875 L 2.5 -3.34375 C 2.5 -3.425781 2.539062 -3.46875 2.625 -3.46875 L 2.75 -3.46875 C 2.832031 -3.46875 2.875 -3.507812 2.875 -3.59375 L 2.875 -5.734375 C 2.875 -5.804688 2.914062 -5.84375 3 -5.84375 L 4.4375 -5.84375 C 4.519531 -5.84375 4.5625 -5.804688 4.5625 -5.734375 L 4.5625 -0.125 C 4.5625 -0.0390625 4.519531 0 4.4375 0 L 3 0 C 2.914062 0 2.875 -0.0390625 2.875 -0.125 L 2.875 -2.640625 C 2.875 -2.710938 2.832031 -2.75 2.75 -2.75 L 2.625 -2.75 C 2.539062 -2.75 2.5 -2.710938 2.5 -2.640625 L 2.5 -2.5 C 2.5 -2.414062 2.460938 -2.375 2.390625 -2.375 L 2.25 -2.375 C 2.164062 -2.375 2.125 -2.335938 2.125 -2.265625 L 2.125 -0.125 C 2.125 -0.0390625 2.082031 0 2 0 L 0.5625 0 C 0.476562 0 0.4375 -0.0390625 0.4375 -0.125 Z M 0.4375 -0.125 "/></g></g></g><g fill="#1f2b5b" fill-opacity="1"><g transform="translate(29.679738, 8.293126)"><g/></g></g><g fill="#ffde59" fill-opacity="1"><g transform="translate(31.240759, 8.293126)"><g><path d="M 0.65625 -0.125 L 0.65625 -0.25 C 0.65625 -0.332031 0.613281 -0.375 0.53125 -0.375 L 0.40625 -0.375 C 0.320312 -0.375 0.28125 -0.414062 0.28125 -0.5 L 0.28125 -1.5625 C 0.28125 -1.644531 0.320312 -1.6875 0.40625 -1.6875 L 1.84375 -1.6875 C 1.925781 -1.6875 1.96875 -1.644531 1.96875 -1.5625 L 1.96875 -0.5 C 1.96875 -0.414062 2.007812 -0.375 2.09375 -0.375 L 2.21875 -0.375 C 2.300781 -0.375 2.34375 -0.414062 2.34375 -0.5 L 2.34375 -0.625 C 2.34375 -0.707031 2.382812 -0.75 2.46875 -0.75 L 2.671875 -0.75 C 2.742188 -0.75 2.78125 -0.789062 2.78125 -0.875 L 2.78125 -2.359375 C 2.78125 -2.429688 2.742188 -2.46875 2.671875 -2.46875 L 2.53125 -2.46875 C 2.445312 -2.46875 2.40625 -2.507812 2.40625 -2.59375 L 2.40625 -2.734375 C 2.40625 -2.804688 2.367188 -2.84375 2.296875 -2.84375 L 1.21875 -2.84375 C 1.132812 -2.84375 1.09375 -2.882812 1.09375 -2.96875 L 1.09375 -3.109375 C 1.09375 -3.179688 1.054688 -3.21875 0.984375 -3.21875 L 0.84375 -3.21875 C 0.757812 -3.21875 0.71875 -3.257812 0.71875 -3.34375 L 0.71875 -3.46875 C 0.71875 -3.550781 0.675781 -3.59375 0.59375 -3.59375 L 0.46875 -3.59375 C 0.382812 -3.59375 0.34375 -3.632812 0.34375 -3.71875 L 0.34375 -4.96875 C 0.34375 -5.050781 0.382812 -5.09375 0.46875 -5.09375 L 0.59375 -5.09375 C 0.675781 -5.09375 0.71875 -5.132812 0.71875 -5.21875 L 0.71875 -5.359375 C 0.71875 -5.429688 0.757812 -5.46875 0.84375 -5.46875 L 0.984375 -5.46875 C 1.054688 -5.46875 1.09375 -5.507812 1.09375 -5.59375 L 1.09375 -5.734375 C 1.09375 -5.804688 1.132812 -5.84375 1.21875 -5.84375 L 3.546875 -5.84375 C 3.617188 -5.84375 3.65625 -5.804688 3.65625 -5.734375 L 3.65625 -5.59375 C 3.65625 -5.507812 3.695312 -5.46875 3.78125 -5.46875 L 4.234375 -5.46875 C 4.304688 -5.46875 4.34375 -5.429688 4.34375 -5.359375 L 4.34375 -4.28125 C 4.34375 -4.195312 4.304688 -4.15625 4.234375 -4.15625 L 3.28125 -4.15625 C 3.195312 -4.15625 3.15625 -4.195312 3.15625 -4.28125 L 3.15625 -4.421875 C 3.15625 -4.492188 3.117188 -4.53125 3.046875 -4.53125 L 2.90625 -4.53125 C 2.820312 -4.53125 2.78125 -4.570312 2.78125 -4.65625 L 2.78125 -5.359375 C 2.78125 -5.429688 2.742188 -5.46875 2.671875 -5.46875 L 2.53125 -5.46875 C 2.445312 -5.46875 2.40625 -5.429688 2.40625 -5.359375 L 2.40625 -5.21875 C 2.40625 -5.132812 2.367188 -5.09375 2.296875 -5.09375 L 2.15625 -5.09375 C 2.070312 -5.09375 2.03125 -5.054688 2.03125 -4.984375 L 2.03125 -3.71875 C 2.03125 -3.632812 2.070312 -3.59375 2.15625 -3.59375 L 2.359375 -3.59375 C 2.429688 -3.59375 2.46875 -3.554688 2.46875 -3.484375 L 2.46875 -3.34375 C 2.46875 -3.257812 2.507812 -3.21875 2.59375 -3.21875 L 3.609375 -3.21875 C 3.679688 -3.21875 3.71875 -3.179688 3.71875 -3.109375 L 3.71875 -2.96875 C 3.71875 -2.882812 3.757812 -2.84375 3.84375 -2.84375 L 3.984375 -2.84375 C 4.054688 -2.84375 4.09375 -2.804688 4.09375 -2.734375 L 4.09375 -2.59375 C 4.09375 -2.507812 4.132812 -2.46875 4.21875 -2.46875 L 4.34375 -2.46875 C 4.425781 -2.46875 4.46875 -2.425781 4.46875 -2.34375 L 4.46875 -0.875 C 4.46875 -0.789062 4.425781 -0.75 4.34375 -0.75 L 4.21875 -0.75 C 4.132812 -0.75 4.09375 -0.707031 4.09375 -0.625 L 4.09375 -0.5 C 4.09375 -0.414062 4.054688 -0.375 3.984375 -0.375 L 3.84375 -0.375 C 3.757812 -0.375 3.71875 -0.332031 3.71875 -0.25 L 3.71875 -0.125 C 3.71875 -0.0390625 3.679688 0 3.609375 0 L 0.765625 0 C 0.691406 0 0.65625 -0.0390625 0.65625 -0.125 Z M 0.65625 -0.125 "/></g></g></g><g fill="#ffde59" fill-opacity="1"><g transform="translate(36.053011, 8.293126)"><g><path d="M 1.65625 -0.125 L 1.65625 -2.46875 C 1.65625 -2.550781 1.613281 -2.59375 1.53125 -2.59375 L 1.125 -2.59375 C 1.039062 -2.59375 1 -2.628906 1 -2.703125 L 1 -2.84375 C 1 -2.925781 0.957031 -2.96875 0.875 -2.96875 L 0.75 -2.96875 C 0.664062 -2.96875 0.625 -3.003906 0.625 -3.078125 L 0.625 -3.21875 C 0.625 -3.300781 0.582031 -3.34375 0.5 -3.34375 L 0.375 -3.34375 C 0.289062 -3.34375 0.25 -3.378906 0.25 -3.453125 L 0.25 -5.734375 C 0.25 -5.804688 0.289062 -5.84375 0.375 -5.84375 L 1.8125 -5.84375 C 1.894531 -5.84375 1.9375 -5.804688 1.9375 -5.734375 L 1.9375 -3.078125 C 1.9375 -3.003906 1.976562 -2.96875 2.0625 -2.96875 L 2.1875 -2.96875 C 2.269531 -2.96875 2.3125 -2.925781 2.3125 -2.84375 L 2.3125 -2.703125 C 2.3125 -2.628906 2.351562 -2.59375 2.4375 -2.59375 L 2.5625 -2.59375 C 2.644531 -2.59375 2.6875 -2.628906 2.6875 -2.703125 L 2.6875 -2.84375 C 2.6875 -2.925781 2.726562 -2.96875 2.8125 -2.96875 L 2.9375 -2.96875 C 3.019531 -2.96875 3.0625 -3.003906 3.0625 -3.078125 L 3.0625 -5.734375 C 3.0625 -5.804688 3.101562 -5.84375 3.1875 -5.84375 L 4.625 -5.84375 C 4.707031 -5.84375 4.75 -5.804688 4.75 -5.734375 L 4.75 -3.453125 C 4.75 -3.378906 4.707031 -3.34375 4.625 -3.34375 L 4.5 -3.34375 C 4.414062 -3.34375 4.375 -3.300781 4.375 -3.21875 L 4.375 -3.078125 C 4.375 -3.003906 4.332031 -2.96875 4.25 -2.96875 L 4.125 -2.96875 C 4.039062 -2.96875 4 -2.925781 4 -2.84375 L 4 -2.703125 C 4 -2.628906 3.957031 -2.59375 3.875 -2.59375 L 3.46875 -2.59375 C 3.382812 -2.59375 3.34375 -2.550781 3.34375 -2.46875 L 3.34375 -0.125 C 3.34375 -0.0390625 3.300781 0 3.21875 0 L 1.78125 0 C 1.695312 0 1.65625 -0.0390625 1.65625 -0.125 Z M 1.65625 -0.125 "/></g></g></g><g fill="#ffde59" fill-opacity="1"><g transform="translate(41.046269, 8.293126)"><g><path d="M 0.4375 -0.125 L 0.4375 -5.734375 C 0.4375 -5.804688 0.476562 -5.84375 0.5625 -5.84375 L 0.890625 -5.84375 C 0.960938 -5.84375 1 -5.804688 1 -5.734375 L 1 -5.59375 C 1 -5.507812 1.039062 -5.46875 1.125 -5.46875 L 1.265625 -5.46875 C 1.335938 -5.46875 1.375 -5.429688 1.375 -5.359375 L 1.375 -5.21875 C 1.375 -5.132812 1.414062 -5.09375 1.5 -5.09375 L 1.640625 -5.09375 C 1.710938 -5.09375 1.75 -5.054688 1.75 -4.984375 L 1.75 -4.84375 C 1.75 -4.757812 1.789062 -4.71875 1.875 -4.71875 L 2.015625 -4.71875 C 2.085938 -4.71875 2.125 -4.679688 2.125 -4.609375 L 2.125 -4.46875 C 2.125 -4.382812 2.164062 -4.34375 2.25 -4.34375 L 2.390625 -4.34375 C 2.460938 -4.34375 2.5 -4.304688 2.5 -4.234375 L 2.5 -4.09375 C 2.5 -4.007812 2.539062 -3.96875 2.625 -3.96875 L 2.765625 -3.96875 C 2.835938 -3.96875 2.875 -3.929688 2.875 -3.859375 L 2.875 -3.71875 C 2.875 -3.632812 2.914062 -3.59375 3 -3.59375 L 3.140625 -3.59375 C 3.210938 -3.59375 3.25 -3.554688 3.25 -3.484375 L 3.25 -3.34375 C 3.25 -3.257812 3.289062 -3.21875 3.375 -3.21875 L 3.515625 -3.21875 C 3.585938 -3.21875 3.625 -3.257812 3.625 -3.34375 L 3.625 -3.484375 C 3.625 -3.554688 3.585938 -3.59375 3.515625 -3.59375 L 3.375 -3.59375 C 3.289062 -3.59375 3.25 -3.632812 3.25 -3.71875 L 3.25 -3.859375 C 3.25 -3.929688 3.210938 -3.96875 3.140625 -3.96875 L 3 -3.96875 C 2.914062 -3.96875 2.875 -4.007812 2.875 -4.09375 L 2.875 -5.734375 C 2.875 -5.804688 2.914062 -5.84375 3 -5.84375 L 4.453125 -5.84375 C 4.523438 -5.84375 4.5625 -5.804688 4.5625 -5.734375 L 4.5625 -0.125 C 4.5625 -0.0390625 4.523438 0 4.453125 0 L 3 0 C 2.914062 0 2.875 -0.0390625 2.875 -0.125 L 2.875 -3.109375 C 2.875 -3.179688 2.835938 -3.21875 2.765625 -3.21875 L 2.625 -3.21875 C 2.539062 -3.21875 2.5 -3.257812 2.5 -3.34375 L 2.5 -3.484375 C 2.5 -3.554688 2.460938 -3.59375 2.390625 -3.59375 L 2.25 -3.59375 C 2.164062 -3.59375 2.125 -3.554688 2.125 -3.484375 L 2.125 -0.125 C 2.125 -0.0390625 2.082031 0 2 0 L 0.5625 0 C 0.476562 0 0.4375 -0.0390625 0.4375 -0.125 Z M 0.4375 -0.125 "/></g></g></g><g fill="#ffde59" fill-opacity="1"><g transform="translate(46.045768, 8.293126)"><g><path d="M 1.1875 -0.125 L 1.1875 -0.25 C 1.1875 -0.332031 1.144531 -0.375 1.0625 -0.375 L 0.9375 -0.375 C 0.851562 -0.375 0.8125 -0.414062 0.8125 -0.5 L 0.8125 -0.625 C 0.8125 -0.707031 0.769531 -0.75 0.6875 -0.75 L 0.5625 -0.75 C 0.476562 -0.75 0.4375 -0.789062 0.4375 -0.875 L 0.4375 -4.984375 C 0.4375 -5.054688 0.476562 -5.09375 0.5625 -5.09375 L 0.6875 -5.09375 C 0.769531 -5.09375 0.8125 -5.132812 0.8125 -5.21875 L 0.8125 -5.359375 C 0.8125 -5.429688 0.851562 -5.46875 0.9375 -5.46875 L 1.0625 -5.46875 C 1.144531 -5.46875 1.1875 -5.507812 1.1875 -5.59375 L 1.1875 -5.734375 C 1.1875 -5.804688 1.226562 -5.84375 1.3125 -5.84375 L 3.96875 -5.84375 C 4.050781 -5.84375 4.09375 -5.800781 4.09375 -5.71875 L 4.09375 -5.59375 C 4.09375 -5.507812 4.132812 -5.46875 4.21875 -5.46875 L 4.4375 -5.46875 C 4.519531 -5.46875 4.5625 -5.425781 4.5625 -5.34375 L 4.5625 -4.28125 C 4.5625 -4.195312 4.519531 -4.15625 4.4375 -4.15625 L 3.375 -4.15625 C 3.289062 -4.15625 3.25 -4.195312 3.25 -4.28125 L 3.25 -4.421875 C 3.25 -4.492188 3.207031 -4.53125 3.125 -4.53125 L 3 -4.53125 C 2.914062 -4.53125 2.875 -4.570312 2.875 -4.65625 L 2.875 -5.359375 C 2.875 -5.429688 2.832031 -5.46875 2.75 -5.46875 L 2.625 -5.46875 C 2.539062 -5.46875 2.5 -5.429688 2.5 -5.359375 L 2.5 -5.21875 C 2.5 -5.132812 2.457031 -5.09375 2.375 -5.09375 L 2.25 -5.09375 C 2.164062 -5.09375 2.125 -5.054688 2.125 -4.984375 L 2.125 -0.875 C 2.125 -0.789062 2.164062 -0.75 2.25 -0.75 L 2.375 -0.75 C 2.457031 -0.75 2.5 -0.707031 2.5 -0.625 L 2.5 -0.5 C 2.5 -0.414062 2.539062 -0.375 2.625 -0.375 L 2.75 -0.375 C 2.832031 -0.375 2.875 -0.414062 2.875 -0.5 L 2.875 -1.5625 C 2.875 -1.644531 2.914062 -1.6875 3 -1.6875 L 4.4375 -1.6875 C 4.519531 -1.6875 4.5625 -1.644531 4.5625 -1.5625 L 4.5625 -0.5 C 4.5625 -0.414062 4.519531 -0.375 4.4375 -0.375 L 4.3125 -0.375 C 4.226562 -0.375 4.1875 -0.332031 4.1875 -0.25 L 4.1875 -0.125 C 4.1875 -0.0390625 4.144531 0 4.0625 0 L 1.3125 0 C 1.226562 0 1.1875 -0.0390625 1.1875 -0.125 Z M 1.1875 -0.125 "/></g></g></g></g></g><g transform="matrix(1, 0, 0, 1, 93, 42)"><g clip-path="url(#dea23442a7)"><g fill="#000000" fill-opacity="1"><g transform="translate(0.768774, 5.572309)"><g><path d="M 1.75 0.140625 C 1.34375 0.140625 0.992188 0.015625 0.703125 -0.234375 C 0.398438 -0.492188 0.25 -0.832031 0.25 -1.25 C 0.25 -1.757812 0.398438 -2.21875 0.703125 -2.625 C 1.035156 -3.082031 1.453125 -3.3125 1.953125 -3.3125 C 2.429688 -3.3125 2.789062 -3.207031 3.03125 -3 C 3.269531 -2.769531 3.390625 -2.410156 3.390625 -1.921875 C 3.390625 -1.421875 3.253906 -0.96875 2.984375 -0.5625 C 2.660156 -0.09375 2.25 0.140625 1.75 0.140625 Z M 1.953125 -2.875 C 1.597656 -2.875 1.296875 -2.691406 1.046875 -2.328125 C 0.816406 -2.003906 0.703125 -1.644531 0.703125 -1.25 C 0.703125 -0.96875 0.804688 -0.738281 1.015625 -0.5625 C 1.210938 -0.394531 1.457031 -0.3125 1.75 -0.3125 C 2.101562 -0.3125 2.398438 -0.492188 2.640625 -0.859375 C 2.835938 -1.171875 2.9375 -1.523438 2.9375 -1.921875 C 2.9375 -2.273438 2.859375 -2.523438 2.703125 -2.671875 C 2.554688 -2.804688 2.304688 -2.875 1.953125 -2.875 Z M 1.953125 -2.875 "/></g></g></g><g fill="#000000" fill-opacity="1"><g transform="translate(4.510426, 5.572309)"><g><path d="M 1.984375 0.15625 C 1.859375 0.15625 1.785156 0.0859375 1.765625 -0.046875 L 1.703125 -0.53125 C 1.679688 -0.695312 1.671875 -0.859375 1.671875 -1.015625 C 1.671875 -1.054688 1.671875 -1.125 1.671875 -1.21875 C 1.679688 -1.3125 1.6875 -1.378906 1.6875 -1.421875 C 1.6875 -1.734375 1.628906 -1.890625 1.515625 -1.890625 C 1.359375 -1.890625 1.203125 -1.796875 1.046875 -1.609375 C 0.910156 -1.429688 0.804688 -1.207031 0.734375 -0.9375 C 0.734375 -0.882812 0.726562 -0.8125 0.71875 -0.71875 C 0.707031 -0.644531 0.703125 -0.578125 0.703125 -0.515625 C 0.703125 -0.460938 0.707031 -0.394531 0.71875 -0.3125 C 0.726562 -0.226562 0.734375 -0.160156 0.734375 -0.109375 C 0.734375 -0.046875 0.710938 0.00390625 0.671875 0.046875 C 0.628906 0.0859375 0.578125 0.109375 0.515625 0.109375 C 0.453125 0.109375 0.398438 0.0859375 0.359375 0.046875 C 0.316406 0.00390625 0.296875 -0.046875 0.296875 -0.109375 C 0.296875 -0.160156 0.289062 -0.226562 0.28125 -0.3125 C 0.269531 -0.394531 0.265625 -0.460938 0.265625 -0.515625 C 0.265625 -0.660156 0.273438 -0.863281 0.296875 -1.125 C 0.316406 -1.394531 0.328125 -1.609375 0.328125 -1.765625 C 0.328125 -1.804688 0.320312 -1.875 0.3125 -1.96875 C 0.3125 -2.0625 0.3125 -2.128906 0.3125 -2.171875 C 0.3125 -2.234375 0.332031 -2.285156 0.375 -2.328125 C 0.414062 -2.367188 0.46875 -2.390625 0.53125 -2.390625 C 0.664062 -2.390625 0.738281 -2.296875 0.75 -2.109375 L 0.765625 -1.84375 C 1.003906 -2.175781 1.253906 -2.34375 1.515625 -2.34375 C 1.753906 -2.34375 1.921875 -2.238281 2.015625 -2.03125 C 2.078125 -1.894531 2.109375 -1.691406 2.109375 -1.421875 L 2.109375 -1 C 2.109375 -0.875 2.125 -0.710938 2.15625 -0.515625 C 2.1875 -0.328125 2.203125 -0.175781 2.203125 -0.0625 C 2.203125 0 2.179688 0.0507812 2.140625 0.09375 C 2.097656 0.132812 2.046875 0.15625 1.984375 0.15625 Z M 1.984375 0.15625 "/></g></g></g><g fill="#000000" fill-opacity="1"><g transform="translate(7.020743, 5.572309)"><g><path d="M 0.859375 -1.71875 L 0.828125 -0.625 C 0.828125 -0.507812 0.820312 -0.34375 0.8125 -0.125 C 0.789062 0.0195312 0.71875 0.09375 0.59375 0.09375 C 0.445312 0.09375 0.375 0.0195312 0.375 -0.125 C 0.375 -0.300781 0.378906 -0.566406 0.390625 -0.921875 C 0.410156 -1.273438 0.421875 -1.539062 0.421875 -1.71875 C 0.421875 -1.945312 0.425781 -2.207031 0.4375 -2.5 C 0.445312 -2.800781 0.453125 -3.066406 0.453125 -3.296875 C 0.453125 -3.441406 0.523438 -3.515625 0.671875 -3.515625 C 0.804688 -3.515625 0.875 -3.441406 0.875 -3.296875 C 0.875 -3.066406 0.867188 -2.800781 0.859375 -2.5 C 0.859375 -2.207031 0.859375 -1.945312 0.859375 -1.71875 Z M 0.859375 -1.71875 "/></g></g></g><g fill="#000000" fill-opacity="1"><g transform="translate(8.413453, 5.572309)"><g><path d="M 0.71875 -2.765625 C 0.65625 -2.765625 0.597656 -2.789062 0.546875 -2.84375 C 0.492188 -2.894531 0.46875 -2.957031 0.46875 -3.03125 C 0.46875 -3.09375 0.492188 -3.148438 0.546875 -3.203125 C 0.597656 -3.253906 0.65625 -3.28125 0.71875 -3.28125 C 0.789062 -3.28125 0.851562 -3.253906 0.90625 -3.203125 C 0.957031 -3.148438 0.984375 -3.09375 0.984375 -3.03125 C 0.984375 -2.957031 0.957031 -2.894531 0.90625 -2.84375 C 0.851562 -2.789062 0.789062 -2.765625 0.71875 -2.765625 Z M 0.828125 -1 C 0.828125 -0.90625 0.828125 -0.769531 0.828125 -0.59375 C 0.835938 -0.425781 0.84375 -0.296875 0.84375 -0.203125 C 0.84375 -0.140625 0.820312 -0.0859375 0.78125 -0.046875 C 0.738281 -0.00390625 0.6875 0.015625 0.625 0.015625 C 0.5625 0.015625 0.507812 -0.00390625 0.46875 -0.046875 C 0.425781 -0.0859375 0.40625 -0.140625 0.40625 -0.203125 C 0.40625 -0.296875 0.398438 -0.425781 0.390625 -0.59375 C 0.390625 -0.769531 0.390625 -0.90625 0.390625 -1 C 0.390625 -1.132812 0.394531 -1.300781 0.40625 -1.5 C 0.425781 -1.707031 0.4375 -1.878906 0.4375 -2.015625 C 0.4375 -2.085938 0.457031 -2.144531 0.5 -2.1875 C 0.539062 -2.226562 0.59375 -2.25 0.65625 -2.25 C 0.71875 -2.25 0.765625 -2.226562 0.796875 -2.1875 C 0.835938 -2.144531 0.859375 -2.085938 0.859375 -2.015625 C 0.859375 -1.878906 0.851562 -1.707031 0.84375 -1.5 C 0.832031 -1.300781 0.828125 -1.132812 0.828125 -1 Z M 0.828125 -1 "/></g></g></g><g fill="#000000" fill-opacity="1"><g transform="translate(9.834596, 5.572309)"><g><path d="M 1.984375 0.15625 C 1.859375 0.15625 1.785156 0.0859375 1.765625 -0.046875 L 1.703125 -0.53125 C 1.679688 -0.695312 1.671875 -0.859375 1.671875 -1.015625 C 1.671875 -1.054688 1.671875 -1.125 1.671875 -1.21875 C 1.679688 -1.3125 1.6875 -1.378906 1.6875 -1.421875 C 1.6875 -1.734375 1.628906 -1.890625 1.515625 -1.890625 C 1.359375 -1.890625 1.203125 -1.796875 1.046875 -1.609375 C 0.910156 -1.429688 0.804688 -1.207031 0.734375 -0.9375 C 0.734375 -0.882812 0.726562 -0.8125 0.71875 -0.71875 C 0.707031 -0.644531 0.703125 -0.578125 0.703125 -0.515625 C 0.703125 -0.460938 0.707031 -0.394531 0.71875 -0.3125 C 0.726562 -0.226562 0.734375 -0.160156 0.734375 -0.109375 C 0.734375 -0.046875 0.710938 0.00390625 0.671875 0.046875 C 0.628906 0.0859375 0.578125 0.109375 0.515625 0.109375 C 0.453125 0.109375 0.398438 0.0859375 0.359375 0.046875 C 0.316406 0.00390625 0.296875 -0.046875 0.296875 -0.109375 C 0.296875 -0.160156 0.289062 -0.226562 0.28125 -0.3125 C 0.269531 -0.394531 0.265625 -0.460938 0.265625 -0.515625 C 0.265625 -0.660156 0.273438 -0.863281 0.296875 -1.125 C 0.316406 -1.394531 0.328125 -1.609375 0.328125 -1.765625 C 0.328125 -1.804688 0.320312 -1.875 0.3125 -1.96875 C 0.3125 -2.0625 0.3125 -2.128906 0.3125 -2.171875 C 0.3125 -2.234375 0.332031 -2.285156 0.375 -2.328125 C 0.414062 -2.367188 0.46875 -2.390625 0.53125 -2.390625 C 0.664062 -2.390625 0.738281 -2.296875 0.75 -2.109375 L 0.765625 -1.84375 C 1.003906 -2.175781 1.253906 -2.34375 1.515625 -2.34375 C 1.753906 -2.34375 1.921875 -2.238281 2.015625 -2.03125 C 2.078125 -1.894531 2.109375 -1.691406 2.109375 -1.421875 L 2.109375 -1 C 2.109375 -0.875 2.125 -0.710938 2.15625 -0.515625 C 2.1875 -0.328125 2.203125 -0.175781 2.203125 -0.0625 C 2.203125 0 2.179688 0.0507812 2.140625 0.09375 C 2.097656 0.132812 2.046875 0.15625 1.984375 0.15625 Z M 1.984375 0.15625 "/></g></g></g><g fill="#000000" fill-opacity="1"><g transform="translate(12.344913, 5.572309)"><g><path d="M 1.328125 0.09375 C 0.992188 0.09375 0.726562 0.015625 0.53125 -0.140625 C 0.300781 -0.328125 0.1875 -0.582031 0.1875 -0.90625 C 0.1875 -1.289062 0.28125 -1.613281 0.46875 -1.875 C 0.664062 -2.144531 0.929688 -2.28125 1.265625 -2.28125 C 1.503906 -2.28125 1.703125 -2.242188 1.859375 -2.171875 C 2.046875 -2.066406 2.140625 -1.910156 2.140625 -1.703125 C 2.140625 -1.554688 2.054688 -1.421875 1.890625 -1.296875 C 1.816406 -1.242188 1.664062 -1.164062 1.4375 -1.0625 L 0.59375 -0.65625 C 0.675781 -0.539062 0.773438 -0.453125 0.890625 -0.390625 C 1.015625 -0.328125 1.160156 -0.296875 1.328125 -0.296875 C 1.429688 -0.296875 1.550781 -0.316406 1.6875 -0.359375 C 1.851562 -0.398438 1.960938 -0.457031 2.015625 -0.53125 C 2.066406 -0.613281 2.117188 -0.65625 2.171875 -0.65625 C 2.222656 -0.65625 2.269531 -0.632812 2.3125 -0.59375 C 2.351562 -0.5625 2.375 -0.519531 2.375 -0.46875 C 2.375 -0.300781 2.242188 -0.160156 1.984375 -0.046875 C 1.753906 0.046875 1.535156 0.09375 1.328125 0.09375 Z M 1.265625 -1.890625 C 1.085938 -1.890625 0.9375 -1.820312 0.8125 -1.6875 C 0.695312 -1.550781 0.613281 -1.34375 0.5625 -1.0625 L 1.234375 -1.390625 C 1.492188 -1.515625 1.679688 -1.625 1.796875 -1.71875 C 1.671875 -1.832031 1.492188 -1.890625 1.265625 -1.890625 Z M 1.265625 -1.890625 "/></g></g></g><g fill="#000000" fill-opacity="1"><g transform="translate(14.964584, 5.572309)"><g/></g></g><g fill="#000000" fill-opacity="1"><g transform="translate(16.468837, 5.572309)"><g><path d="M 2.734375 0.0625 C 2.597656 0.0625 2.484375 -0.109375 2.390625 -0.453125 C 2.347656 -0.578125 2.300781 -0.804688 2.25 -1.140625 C 2.09375 -1.117188 1.894531 -1.082031 1.65625 -1.03125 L 1.078125 -0.90625 C 1.003906 -0.71875 0.878906 -0.441406 0.703125 -0.078125 C 0.648438 0.00390625 0.585938 0.046875 0.515625 0.046875 C 0.453125 0.046875 0.394531 0.0234375 0.34375 -0.015625 C 0.300781 -0.0546875 0.28125 -0.109375 0.28125 -0.171875 C 0.28125 -0.242188 0.394531 -0.507812 0.625 -0.96875 C 0.59375 -1.007812 0.578125 -1.050781 0.578125 -1.09375 C 0.578125 -1.21875 0.648438 -1.296875 0.796875 -1.328125 C 0.960938 -1.640625 1.171875 -2 1.421875 -2.40625 C 1.765625 -2.957031 1.984375 -3.234375 2.078125 -3.234375 C 2.191406 -3.234375 2.269531 -3.15625 2.3125 -3 L 2.453125 -2.265625 L 2.765625 -0.734375 L 2.890625 -0.390625 C 2.929688 -0.273438 2.953125 -0.195312 2.953125 -0.15625 C 2.953125 -0.09375 2.929688 -0.0390625 2.890625 0 C 2.847656 0.0390625 2.796875 0.0625 2.734375 0.0625 Z M 1.96875 -2.4375 L 1.34375 -1.421875 C 1.519531 -1.472656 1.785156 -1.53125 2.140625 -1.59375 Z M 1.96875 -2.4375 "/></g></g></g><g clip-path="url(#8089a585ac)"><g fill="#000000" fill-opacity="1"><g transform="translate(19.910856, 5.572309)"><g><path d="M 1.234375 0.078125 C 1.085938 0.078125 0.925781 0.0507812 0.75 0 L 0.75 1.046875 C 0.75 1.117188 0.726562 1.171875 0.6875 1.203125 C 0.644531 1.242188 0.59375 1.265625 0.53125 1.265625 C 0.46875 1.265625 0.414062 1.242188 0.375 1.203125 C 0.332031 1.171875 0.3125 1.117188 0.3125 1.046875 L 0.328125 0.171875 L 0.328125 -0.703125 C 0.316406 -1.015625 0.304688 -1.300781 0.296875 -1.5625 L 0.265625 -2.015625 C 0.265625 -2.117188 0.28125 -2.207031 0.3125 -2.28125 C 0.363281 -2.363281 0.429688 -2.40625 0.515625 -2.40625 C 0.566406 -2.40625 0.609375 -2.382812 0.640625 -2.34375 C 0.679688 -2.300781 0.703125 -2.253906 0.703125 -2.203125 C 0.703125 -2.179688 0.703125 -2.15625 0.703125 -2.125 C 0.691406 -2.082031 0.6875 -2.039062 0.6875 -2 C 0.8125 -2.082031 0.929688 -2.144531 1.046875 -2.1875 C 1.160156 -2.238281 1.273438 -2.265625 1.390625 -2.265625 C 1.679688 -2.265625 1.898438 -2.128906 2.046875 -1.859375 C 2.148438 -1.648438 2.203125 -1.375 2.203125 -1.03125 C 2.203125 -0.707031 2.117188 -0.445312 1.953125 -0.25 C 1.773438 -0.03125 1.535156 0.078125 1.234375 0.078125 Z M 1.390625 -1.828125 C 1.253906 -1.828125 1.128906 -1.796875 1.015625 -1.734375 C 0.941406 -1.691406 0.847656 -1.613281 0.734375 -1.5 C 0.742188 -1.164062 0.75 -0.816406 0.75 -0.453125 C 0.914062 -0.390625 1.078125 -0.359375 1.234375 -0.359375 C 1.421875 -0.359375 1.5625 -0.425781 1.65625 -0.5625 C 1.738281 -0.6875 1.78125 -0.84375 1.78125 -1.03125 C 1.78125 -1.289062 1.742188 -1.488281 1.671875 -1.625 C 1.609375 -1.757812 1.515625 -1.828125 1.390625 -1.828125 Z M 1.390625 -1.828125 "/></g></g></g></g><g clip-path="url(#6c7ed99f46)"><g fill="#000000" fill-opacity="1"><g transform="translate(22.471476, 5.572309)"><g><path d="M 1.234375 0.078125 C 1.085938 0.078125 0.925781 0.0507812 0.75 0 L 0.75 1.046875 C 0.75 1.117188 0.726562 1.171875 0.6875 1.203125 C 0.644531 1.242188 0.59375 1.265625 0.53125 1.265625 C 0.46875 1.265625 0.414062 1.242188 0.375 1.203125 C 0.332031 1.171875 0.3125 1.117188 0.3125 1.046875 L 0.328125 0.171875 L 0.328125 -0.703125 C 0.316406 -1.015625 0.304688 -1.300781 0.296875 -1.5625 L 0.265625 -2.015625 C 0.265625 -2.117188 0.28125 -2.207031 0.3125 -2.28125 C 0.363281 -2.363281 0.429688 -2.40625 0.515625 -2.40625 C 0.566406 -2.40625 0.609375 -2.382812 0.640625 -2.34375 C 0.679688 -2.300781 0.703125 -2.253906 0.703125 -2.203125 C 0.703125 -2.179688 0.703125 -2.15625 0.703125 -2.125 C 0.691406 -2.082031 0.6875 -2.039062 0.6875 -2 C 0.8125 -2.082031 0.929688 -2.144531 1.046875 -2.1875 C 1.160156 -2.238281 1.273438 -2.265625 1.390625 -2.265625 C 1.679688 -2.265625 1.898438 -2.128906 2.046875 -1.859375 C 2.148438 -1.648438 2.203125 -1.375 2.203125 -1.03125 C 2.203125 -0.707031 2.117188 -0.445312 1.953125 -0.25 C 1.773438 -0.03125 1.535156 0.078125 1.234375 0.078125 Z M 1.390625 -1.828125 C 1.253906 -1.828125 1.128906 -1.796875 1.015625 -1.734375 C 0.941406 -1.691406 0.847656 -1.613281 0.734375 -1.5 C 0.742188 -1.164062 0.75 -0.816406 0.75 -0.453125 C 0.914062 -0.390625 1.078125 -0.359375 1.234375 -0.359375 C 1.421875 -0.359375 1.5625 -0.425781 1.65625 -0.5625 C 1.738281 -0.6875 1.78125 -0.84375 1.78125 -1.03125 C 1.78125 -1.289062 1.742188 -1.488281 1.671875 -1.625 C 1.609375 -1.757812 1.515625 -1.828125 1.390625 -1.828125 Z M 1.390625 -1.828125 "/></g></g></g></g><g fill="#000000" fill-opacity="1"><g transform="translate(25.032096, 5.572309)"><g><path d="M 1.125 0.125 C 0.875 0.125 0.664062 0.0351562 0.5 -0.140625 C 0.300781 -0.335938 0.195312 -0.609375 0.1875 -0.953125 C 0.175781 -1.285156 0.257812 -1.578125 0.4375 -1.828125 C 0.632812 -2.117188 0.914062 -2.265625 1.28125 -2.265625 C 1.570312 -2.265625 1.796875 -2.132812 1.953125 -1.875 C 2.066406 -1.65625 2.125 -1.394531 2.125 -1.09375 C 2.113281 -0.769531 2.03125 -0.492188 1.875 -0.265625 C 1.6875 -0.00390625 1.4375 0.125 1.125 0.125 Z M 1.25 -1.828125 C 1.039062 -1.828125 0.875 -1.722656 0.75 -1.515625 C 0.65625 -1.347656 0.609375 -1.160156 0.609375 -0.953125 C 0.609375 -0.742188 0.664062 -0.578125 0.78125 -0.453125 C 0.882812 -0.359375 1 -0.3125 1.125 -0.3125 C 1.28125 -0.3125 1.410156 -0.367188 1.515625 -0.484375 C 1.640625 -0.597656 1.707031 -0.765625 1.71875 -0.984375 C 1.738281 -1.546875 1.582031 -1.828125 1.25 -1.828125 Z M 1.25 -1.828125 "/></g></g></g><g fill="#000000" fill-opacity="1"><g transform="translate(27.553348, 5.572309)"><g><path d="M 0.71875 -2.765625 C 0.65625 -2.765625 0.597656 -2.789062 0.546875 -2.84375 C 0.492188 -2.894531 0.46875 -2.957031 0.46875 -3.03125 C 0.46875 -3.09375 0.492188 -3.148438 0.546875 -3.203125 C 0.597656 -3.253906 0.65625 -3.28125 0.71875 -3.28125 C 0.789062 -3.28125 0.851562 -3.253906 0.90625 -3.203125 C 0.957031 -3.148438 0.984375 -3.09375 0.984375 -3.03125 C 0.984375 -2.957031 0.957031 -2.894531 0.90625 -2.84375 C 0.851562 -2.789062 0.789062 -2.765625 0.71875 -2.765625 Z M 0.828125 -1 C 0.828125 -0.90625 0.828125 -0.769531 0.828125 -0.59375 C 0.835938 -0.425781 0.84375 -0.296875 0.84375 -0.203125 C 0.84375 -0.140625 0.820312 -0.0859375 0.78125 -0.046875 C 0.738281 -0.00390625 0.6875 0.015625 0.625 0.015625 C 0.5625 0.015625 0.507812 -0.00390625 0.46875 -0.046875 C 0.425781 -0.0859375 0.40625 -0.140625 0.40625 -0.203125 C 0.40625 -0.296875 0.398438 -0.425781 0.390625 -0.59375 C 0.390625 -0.769531 0.390625 -0.90625 0.390625 -1 C 0.390625 -1.132812 0.394531 -1.300781 0.40625 -1.5 C 0.425781 -1.707031 0.4375 -1.878906 0.4375 -2.015625 C 0.4375 -2.085938 0.457031 -2.144531 0.5 -2.1875 C 0.539062 -2.226562 0.59375 -2.25 0.65625 -2.25 C 0.71875 -2.25 0.765625 -2.226562 0.796875 -2.1875 C 0.835938 -2.144531 0.859375 -2.085938 0.859375 -2.015625 C 0.859375 -1.878906 0.851562 -1.707031 0.84375 -1.5 C 0.832031 -1.300781 0.828125 -1.132812 0.828125 -1 Z M 0.828125 -1 "/></g></g></g><g fill="#000000" fill-opacity="1"><g transform="translate(28.974492, 5.572309)"><g><path d="M 1.984375 0.15625 C 1.859375 0.15625 1.785156 0.0859375 1.765625 -0.046875 L 1.703125 -0.53125 C 1.679688 -0.695312 1.671875 -0.859375 1.671875 -1.015625 C 1.671875 -1.054688 1.671875 -1.125 1.671875 -1.21875 C 1.679688 -1.3125 1.6875 -1.378906 1.6875 -1.421875 C 1.6875 -1.734375 1.628906 -1.890625 1.515625 -1.890625 C 1.359375 -1.890625 1.203125 -1.796875 1.046875 -1.609375 C 0.910156 -1.429688 0.804688 -1.207031 0.734375 -0.9375 C 0.734375 -0.882812 0.726562 -0.8125 0.71875 -0.71875 C 0.707031 -0.644531 0.703125 -0.578125 0.703125 -0.515625 C 0.703125 -0.460938 0.707031 -0.394531 0.71875 -0.3125 C 0.726562 -0.226562 0.734375 -0.160156 0.734375 -0.109375 C 0.734375 -0.046875 0.710938 0.00390625 0.671875 0.046875 C 0.628906 0.0859375 0.578125 0.109375 0.515625 0.109375 C 0.453125 0.109375 0.398438 0.0859375 0.359375 0.046875 C 0.316406 0.00390625 0.296875 -0.046875 0.296875 -0.109375 C 0.296875 -0.160156 0.289062 -0.226562 0.28125 -0.3125 C 0.269531 -0.394531 0.265625 -0.460938 0.265625 -0.515625 C 0.265625 -0.660156 0.273438 -0.863281 0.296875 -1.125 C 0.316406 -1.394531 0.328125 -1.609375 0.328125 -1.765625 C 0.328125 -1.804688 0.320312 -1.875 0.3125 -1.96875 C 0.3125 -2.0625 0.3125 -2.128906 0.3125 -2.171875 C 0.3125 -2.234375 0.332031 -2.285156 0.375 -2.328125 C 0.414062 -2.367188 0.46875 -2.390625 0.53125 -2.390625 C 0.664062 -2.390625 0.738281 -2.296875 0.75 -2.109375 L 0.765625 -1.84375 C 1.003906 -2.175781 1.253906 -2.34375 1.515625 -2.34375 C 1.753906 -2.34375 1.921875 -2.238281 2.015625 -2.03125 C 2.078125 -1.894531 2.109375 -1.691406 2.109375 -1.421875 L 2.109375 -1 C 2.109375 -0.875 2.125 -0.710938 2.15625 -0.515625 C 2.1875 -0.328125 2.203125 -0.175781 2.203125 -0.0625 C 2.203125 0 2.179688 0.0507812 2.140625 0.09375 C 2.097656 0.132812 2.046875 0.15625 1.984375 0.15625 Z M 1.984375 0.15625 "/></g></g></g><g fill="#000000" fill-opacity="1"><g transform="translate(31.484808, 5.572309)"><g><path d="M 1.765625 -1.859375 C 1.734375 -1.859375 1.695312 -1.859375 1.65625 -1.859375 C 1.613281 -1.867188 1.578125 -1.875 1.546875 -1.875 C 1.515625 -1.875 1.414062 -1.863281 1.25 -1.84375 L 1.296875 -0.546875 L 1.296875 -0.34375 C 1.304688 -0.0195312 1.234375 0.140625 1.078125 0.140625 C 1.015625 0.140625 0.960938 0.117188 0.921875 0.078125 C 0.878906 0.046875 0.859375 0 0.859375 -0.0625 C 0.859375 -0.113281 0.859375 -0.191406 0.859375 -0.296875 C 0.859375 -0.410156 0.859375 -0.5 0.859375 -0.5625 L 0.828125 -1.84375 C 0.710938 -1.84375 0.550781 -1.851562 0.34375 -1.875 C 0.207031 -1.894531 0.140625 -1.96875 0.140625 -2.09375 C 0.140625 -2.15625 0.160156 -2.207031 0.203125 -2.25 C 0.242188 -2.289062 0.296875 -2.3125 0.359375 -2.3125 L 0.8125 -2.28125 C 0.8125 -2.351562 0.804688 -2.453125 0.796875 -2.578125 C 0.796875 -2.703125 0.796875 -2.789062 0.796875 -2.84375 C 0.796875 -2.90625 0.816406 -2.957031 0.859375 -3 C 0.898438 -3.039062 0.953125 -3.0625 1.015625 -3.0625 C 1.140625 -3.0625 1.210938 -2.953125 1.234375 -2.734375 C 1.242188 -2.679688 1.25 -2.617188 1.25 -2.546875 L 1.25 -2.421875 L 1.234375 -2.28125 C 1.421875 -2.300781 1.523438 -2.3125 1.546875 -2.3125 C 1.703125 -2.3125 1.800781 -2.304688 1.84375 -2.296875 C 1.9375 -2.265625 1.984375 -2.195312 1.984375 -2.09375 C 1.984375 -2.019531 1.960938 -1.960938 1.921875 -1.921875 C 1.878906 -1.878906 1.828125 -1.859375 1.765625 -1.859375 Z M 1.765625 -1.859375 "/></g></g></g><g fill="#000000" fill-opacity="1"><g transform="translate(33.761105, 5.572309)"><g><path d="M 3.078125 0.1875 C 2.960938 0.1875 2.894531 0.117188 2.875 -0.015625 C 2.84375 -0.171875 2.816406 -0.394531 2.796875 -0.6875 L 2.71875 -1.359375 C 2.707031 -1.460938 2.679688 -1.5625 2.640625 -1.65625 C 2.597656 -1.789062 2.546875 -1.859375 2.484375 -1.859375 C 2.429688 -1.859375 2.332031 -1.8125 2.1875 -1.71875 C 2.039062 -1.632812 1.945312 -1.566406 1.90625 -1.515625 C 1.90625 -1.378906 1.910156 -1.242188 1.921875 -1.109375 L 1.984375 -0.515625 C 2.015625 -0.285156 2.03125 -0.0976562 2.03125 0.046875 C 2.03125 0.109375 2.007812 0.160156 1.96875 0.203125 C 1.925781 0.242188 1.875 0.265625 1.8125 0.265625 C 1.75 0.265625 1.695312 0.242188 1.65625 0.203125 C 1.613281 0.160156 1.59375 0.109375 1.59375 0.046875 C 1.59375 -0.128906 1.570312 -0.390625 1.53125 -0.734375 C 1.5 -1.078125 1.484375 -1.335938 1.484375 -1.515625 C 1.484375 -1.671875 1.460938 -1.789062 1.421875 -1.875 C 1.316406 -1.832031 1.210938 -1.757812 1.109375 -1.65625 L 0.859375 -1.359375 C 0.828125 -1.328125 0.789062 -1.28125 0.75 -1.21875 C 0.75 -1.132812 0.738281 -1.003906 0.71875 -0.828125 C 0.695312 -0.660156 0.6875 -0.535156 0.6875 -0.453125 C 0.6875 -0.410156 0.691406 -0.347656 0.703125 -0.265625 C 0.722656 -0.191406 0.734375 -0.132812 0.734375 -0.09375 C 0.734375 -0.0390625 0.710938 0.00390625 0.671875 0.046875 C 0.628906 0.0859375 0.578125 0.109375 0.515625 0.109375 C 0.347656 0.109375 0.265625 -0.078125 0.265625 -0.453125 C 0.265625 -0.535156 0.269531 -0.664062 0.28125 -0.84375 C 0.300781 -1.019531 0.3125 -1.148438 0.3125 -1.234375 C 0.3125 -1.304688 0.300781 -1.421875 0.28125 -1.578125 C 0.269531 -1.734375 0.265625 -1.851562 0.265625 -1.9375 C 0.265625 -2.269531 0.34375 -2.4375 0.5 -2.4375 C 0.550781 -2.4375 0.597656 -2.410156 0.640625 -2.359375 C 0.691406 -2.304688 0.71875 -2.25 0.71875 -2.1875 C 0.71875 -2.164062 0.710938 -2.125 0.703125 -2.0625 C 0.703125 -2.007812 0.703125 -1.96875 0.703125 -1.9375 L 0.703125 -1.703125 C 0.773438 -1.859375 0.882812 -2 1.03125 -2.125 C 1.1875 -2.25 1.316406 -2.3125 1.421875 -2.3125 C 1.648438 -2.3125 1.804688 -2.195312 1.890625 -1.96875 C 1.972656 -2.070312 2.066406 -2.148438 2.171875 -2.203125 C 2.285156 -2.265625 2.414062 -2.296875 2.5625 -2.296875 C 2.800781 -2.296875 2.96875 -2.160156 3.0625 -1.890625 C 3.070312 -1.835938 3.097656 -1.632812 3.140625 -1.28125 C 3.179688 -1.03125 3.234375 -0.613281 3.296875 -0.03125 C 3.304688 0.03125 3.285156 0.0820312 3.234375 0.125 C 3.191406 0.164062 3.140625 0.1875 3.078125 0.1875 Z M 3.078125 0.1875 "/></g></g></g><g fill="#000000" fill-opacity="1"><g transform="translate(37.406523, 5.572309)"><g><path d="M 1.328125 0.09375 C 0.992188 0.09375 0.726562 0.015625 0.53125 -0.140625 C 0.300781 -0.328125 0.1875 -0.582031 0.1875 -0.90625 C 0.1875 -1.289062 0.28125 -1.613281 0.46875 -1.875 C 0.664062 -2.144531 0.929688 -2.28125 1.265625 -2.28125 C 1.503906 -2.28125 1.703125 -2.242188 1.859375 -2.171875 C 2.046875 -2.066406 2.140625 -1.910156 2.140625 -1.703125 C 2.140625 -1.554688 2.054688 -1.421875 1.890625 -1.296875 C 1.816406 -1.242188 1.664062 -1.164062 1.4375 -1.0625 L 0.59375 -0.65625 C 0.675781 -0.539062 0.773438 -0.453125 0.890625 -0.390625 C 1.015625 -0.328125 1.160156 -0.296875 1.328125 -0.296875 C 1.429688 -0.296875 1.550781 -0.316406 1.6875 -0.359375 C 1.851562 -0.398438 1.960938 -0.457031 2.015625 -0.53125 C 2.066406 -0.613281 2.117188 -0.65625 2.171875 -0.65625 C 2.222656 -0.65625 2.269531 -0.632812 2.3125 -0.59375 C 2.351562 -0.5625 2.375 -0.519531 2.375 -0.46875 C 2.375 -0.300781 2.242188 -0.160156 1.984375 -0.046875 C 1.753906 0.046875 1.535156 0.09375 1.328125 0.09375 Z M 1.265625 -1.890625 C 1.085938 -1.890625 0.9375 -1.820312 0.8125 -1.6875 C 0.695312 -1.550781 0.613281 -1.34375 0.5625 -1.0625 L 1.234375 -1.390625 C 1.492188 -1.515625 1.679688 -1.625 1.796875 -1.71875 C 1.671875 -1.832031 1.492188 -1.890625 1.265625 -1.890625 Z M 1.265625 -1.890625 "/></g></g></g><g fill="#000000" fill-opacity="1"><g transform="translate(40.026195, 5.572309)"><g><path d="M 1.984375 0.15625 C 1.859375 0.15625 1.785156 0.0859375 1.765625 -0.046875 L 1.703125 -0.53125 C 1.679688 -0.695312 1.671875 -0.859375 1.671875 -1.015625 C 1.671875 -1.054688 1.671875 -1.125 1.671875 -1.21875 C 1.679688 -1.3125 1.6875 -1.378906 1.6875 -1.421875 C 1.6875 -1.734375 1.628906 -1.890625 1.515625 -1.890625 C 1.359375 -1.890625 1.203125 -1.796875 1.046875 -1.609375 C 0.910156 -1.429688 0.804688 -1.207031 0.734375 -0.9375 C 0.734375 -0.882812 0.726562 -0.8125 0.71875 -0.71875 C 0.707031 -0.644531 0.703125 -0.578125 0.703125 -0.515625 C 0.703125 -0.460938 0.707031 -0.394531 0.71875 -0.3125 C 0.726562 -0.226562 0.734375 -0.160156 0.734375 -0.109375 C 0.734375 -0.046875 0.710938 0.00390625 0.671875 0.046875 C 0.628906 0.0859375 0.578125 0.109375 0.515625 0.109375 C 0.453125 0.109375 0.398438 0.0859375 0.359375 0.046875 C 0.316406 0.00390625 0.296875 -0.046875 0.296875 -0.109375 C 0.296875 -0.160156 0.289062 -0.226562 0.28125 -0.3125 C 0.269531 -0.394531 0.265625 -0.460938 0.265625 -0.515625 C 0.265625 -0.660156 0.273438 -0.863281 0.296875 -1.125 C 0.316406 -1.394531 0.328125 -1.609375 0.328125 -1.765625 C 0.328125 -1.804688 0.320312 -1.875 0.3125 -1.96875 C 0.3125 -2.0625 0.3125 -2.128906 0.3125 -2.171875 C 0.3125 -2.234375 0.332031 -2.285156 0.375 -2.328125 C 0.414062 -2.367188 0.46875 -2.390625 0.53125 -2.390625 C 0.664062 -2.390625 0.738281 -2.296875 0.75 -2.109375 L 0.765625 -1.84375 C 1.003906 -2.175781 1.253906 -2.34375 1.515625 -2.34375 C 1.753906 -2.34375 1.921875 -2.238281 2.015625 -2.03125 C 2.078125 -1.894531 2.109375 -1.691406 2.109375 -1.421875 L 2.109375 -1 C 2.109375 -0.875 2.125 -0.710938 2.15625 -0.515625 C 2.1875 -0.328125 2.203125 -0.175781 2.203125 -0.0625 C 2.203125 0 2.179688 0.0507812 2.140625 0.09375 C 2.097656 0.132812 2.046875 0.15625 1.984375 0.15625 Z M 1.984375 0.15625 "/></g></g></g><g fill="#000000" fill-opacity="1"><g transform="translate(42.536515, 5.572309)"><g><path d="M 1.765625 -1.859375 C 1.734375 -1.859375 1.695312 -1.859375 1.65625 -1.859375 C 1.613281 -1.867188 1.578125 -1.875 1.546875 -1.875 C 1.515625 -1.875 1.414062 -1.863281 1.25 -1.84375 L 1.296875 -0.546875 L 1.296875 -0.34375 C 1.304688 -0.0195312 1.234375 0.140625 1.078125 0.140625 C 1.015625 0.140625 0.960938 0.117188 0.921875 0.078125 C 0.878906 0.046875 0.859375 0 0.859375 -0.0625 C 0.859375 -0.113281 0.859375 -0.191406 0.859375 -0.296875 C 0.859375 -0.410156 0.859375 -0.5 0.859375 -0.5625 L 0.828125 -1.84375 C 0.710938 -1.84375 0.550781 -1.851562 0.34375 -1.875 C 0.207031 -1.894531 0.140625 -1.96875 0.140625 -2.09375 C 0.140625 -2.15625 0.160156 -2.207031 0.203125 -2.25 C 0.242188 -2.289062 0.296875 -2.3125 0.359375 -2.3125 L 0.8125 -2.28125 C 0.8125 -2.351562 0.804688 -2.453125 0.796875 -2.578125 C 0.796875 -2.703125 0.796875 -2.789062 0.796875 -2.84375 C 0.796875 -2.90625 0.816406 -2.957031 0.859375 -3 C 0.898438 -3.039062 0.953125 -3.0625 1.015625 -3.0625 C 1.140625 -3.0625 1.210938 -2.953125 1.234375 -2.734375 C 1.242188 -2.679688 1.25 -2.617188 1.25 -2.546875 L 1.25 -2.421875 L 1.234375 -2.28125 C 1.421875 -2.300781 1.523438 -2.3125 1.546875 -2.3125 C 1.703125 -2.3125 1.800781 -2.304688 1.84375 -2.296875 C 1.9375 -2.265625 1.984375 -2.195312 1.984375 -2.09375 C 1.984375 -2.019531 1.960938 -1.960938 1.921875 -1.921875 C 1.878906 -1.878906 1.828125 -1.859375 1.765625 -1.859375 Z M 1.765625 -1.859375 "/></g></g></g><g fill="#000000" fill-opacity="1"><g transform="translate(44.812811, 5.572309)"><g/></g></g><g fill="#000000" fill-opacity="1"><g transform="translate(46.317062, 5.572309)"><g><path d="M 2.015625 0.140625 C 1.984375 0.140625 1.929688 0.109375 1.859375 0.046875 C 1.796875 -0.015625 1.75 -0.0664062 1.71875 -0.109375 C 1.570312 -0.0351562 1.445312 0.0195312 1.34375 0.0625 C 1.238281 0.101562 1.148438 0.125 1.078125 0.125 C 0.734375 0.125 0.484375 0.0234375 0.328125 -0.171875 C 0.179688 -0.347656 0.109375 -0.625 0.109375 -1 C 0.109375 -1.351562 0.226562 -1.65625 0.46875 -1.90625 C 0.71875 -2.15625 1.007812 -2.28125 1.34375 -2.28125 C 1.46875 -2.28125 1.613281 -2.25 1.78125 -2.1875 C 1.976562 -2.101562 2.078125 -2.003906 2.078125 -1.890625 C 2.078125 -1.847656 2.0625 -1.8125 2.03125 -1.78125 C 2.007812 -1.726562 1.992188 -1.640625 1.984375 -1.515625 C 1.984375 -1.390625 1.984375 -1.226562 1.984375 -1.03125 C 1.984375 -0.84375 1.992188 -0.695312 2.015625 -0.59375 C 2.023438 -0.53125 2.070312 -0.398438 2.15625 -0.203125 C 2.164062 -0.179688 2.179688 -0.144531 2.203125 -0.09375 L 2.21875 -0.0625 C 2.21875 0 2.195312 0.046875 2.15625 0.078125 C 2.113281 0.117188 2.066406 0.140625 2.015625 0.140625 Z M 1.5625 -1.375 C 1.5625 -1.4375 1.5625 -1.503906 1.5625 -1.578125 C 1.570312 -1.648438 1.585938 -1.726562 1.609375 -1.8125 C 1.554688 -1.84375 1.507812 -1.863281 1.46875 -1.875 C 1.425781 -1.882812 1.394531 -1.890625 1.375 -1.890625 C 1.144531 -1.890625 0.945312 -1.796875 0.78125 -1.609375 C 0.625 -1.429688 0.546875 -1.222656 0.546875 -0.984375 C 0.546875 -0.742188 0.585938 -0.5625 0.671875 -0.4375 C 0.753906 -0.320312 0.878906 -0.265625 1.046875 -0.265625 C 1.191406 -0.265625 1.3125 -0.289062 1.40625 -0.34375 C 1.457031 -0.375 1.53125 -0.429688 1.625 -0.515625 C 1.582031 -0.898438 1.5625 -1.1875 1.5625 -1.375 Z M 1.5625 -1.375 "/></g></g></g><g fill="#000000" fill-opacity="1"><g transform="translate(48.774891, 5.572309)"><g><path d="M 1.984375 0.15625 C 1.859375 0.15625 1.785156 0.0859375 1.765625 -0.046875 L 1.703125 -0.53125 C 1.679688 -0.695312 1.671875 -0.859375 1.671875 -1.015625 C 1.671875 -1.054688 1.671875 -1.125 1.671875 -1.21875 C 1.679688 -1.3125 1.6875 -1.378906 1.6875 -1.421875 C 1.6875 -1.734375 1.628906 -1.890625 1.515625 -1.890625 C 1.359375 -1.890625 1.203125 -1.796875 1.046875 -1.609375 C 0.910156 -1.429688 0.804688 -1.207031 0.734375 -0.9375 C 0.734375 -0.882812 0.726562 -0.8125 0.71875 -0.71875 C 0.707031 -0.644531 0.703125 -0.578125 0.703125 -0.515625 C 0.703125 -0.460938 0.707031 -0.394531 0.71875 -0.3125 C 0.726562 -0.226562 0.734375 -0.160156 0.734375 -0.109375 C 0.734375 -0.046875 0.710938 0.00390625 0.671875 0.046875 C 0.628906 0.0859375 0.578125 0.109375 0.515625 0.109375 C 0.453125 0.109375 0.398438 0.0859375 0.359375 0.046875 C 0.316406 0.00390625 0.296875 -0.046875 0.296875 -0.109375 C 0.296875 -0.160156 0.289062 -0.226562 0.28125 -0.3125 C 0.269531 -0.394531 0.265625 -0.460938 0.265625 -0.515625 C 0.265625 -0.660156 0.273438 -0.863281 0.296875 -1.125 C 0.316406 -1.394531 0.328125 -1.609375 0.328125 -1.765625 C 0.328125 -1.804688 0.320312 -1.875 0.3125 -1.96875 C 0.3125 -2.0625 0.3125 -2.128906 0.3125 -2.171875 C 0.3125 -2.234375 0.332031 -2.285156 0.375 -2.328125 C 0.414062 -2.367188 0.46875 -2.390625 0.53125 -2.390625 C 0.664062 -2.390625 0.738281 -2.296875 0.75 -2.109375 L 0.765625 -1.84375 C 1.003906 -2.175781 1.253906 -2.34375 1.515625 -2.34375 C 1.753906 -2.34375 1.921875 -2.238281 2.015625 -2.03125 C 2.078125 -1.894531 2.109375 -1.691406 2.109375 -1.421875 L 2.109375 -1 C 2.109375 -0.875 2.125 -0.710938 2.15625 -0.515625 C 2.1875 -0.328125 2.203125 -0.175781 2.203125 -0.0625 C 2.203125 0 2.179688 0.0507812 2.140625 0.09375 C 2.097656 0.132812 2.046875 0.15625 1.984375 0.15625 Z M 1.984375 0.15625 "/></g></g></g><g fill="#000000" fill-opacity="1"><g transform="translate(51.285207, 5.572309)"><g><path d="M 2.328125 -1.9375 C 2.304688 -1.71875 2.296875 -1.503906 2.296875 -1.296875 C 2.296875 -0.804688 2.316406 -0.4375 2.359375 -0.1875 C 2.359375 -0.164062 2.359375 -0.148438 2.359375 -0.140625 C 2.359375 -0.078125 2.335938 -0.03125 2.296875 0 C 2.265625 0.0390625 2.21875 0.0625 2.15625 0.0625 C 2.070312 0.0625 2.007812 -0.00390625 1.96875 -0.140625 C 1.863281 -0.0546875 1.753906 0 1.640625 0.03125 C 1.523438 0.0703125 1.40625 0.09375 1.28125 0.09375 C 0.976562 0.09375 0.726562 -0.00390625 0.53125 -0.203125 C 0.320312 -0.410156 0.21875 -0.675781 0.21875 -1 C 0.21875 -1.382812 0.320312 -1.691406 0.53125 -1.921875 C 0.738281 -2.160156 1.007812 -2.28125 1.34375 -2.28125 C 1.507812 -2.28125 1.640625 -2.253906 1.734375 -2.203125 L 1.9375 -2.046875 C 1.957031 -2.660156 1.984375 -3.078125 2.015625 -3.296875 C 2.023438 -3.421875 2.085938 -3.484375 2.203125 -3.484375 C 2.335938 -3.484375 2.40625 -3.414062 2.40625 -3.28125 C 2.40625 -3.070312 2.378906 -2.625 2.328125 -1.9375 Z M 1.34375 -1.875 C 1.101562 -1.875 0.921875 -1.800781 0.796875 -1.65625 C 0.671875 -1.507812 0.609375 -1.289062 0.609375 -1 C 0.609375 -0.8125 0.675781 -0.648438 0.8125 -0.515625 C 0.945312 -0.378906 1.101562 -0.3125 1.28125 -0.3125 C 1.40625 -0.3125 1.507812 -0.332031 1.59375 -0.375 C 1.644531 -0.40625 1.726562 -0.46875 1.84375 -0.5625 C 1.863281 -0.582031 1.882812 -0.601562 1.90625 -0.625 L 1.890625 -1.015625 L 1.890625 -1.265625 L 1.90625 -1.515625 C 1.84375 -1.640625 1.765625 -1.726562 1.671875 -1.78125 C 1.585938 -1.84375 1.476562 -1.875 1.34375 -1.875 Z M 1.34375 -1.875 "/></g></g></g><g fill="#ff751f" fill-opacity="1"><g transform="translate(54.082895, 5.572309)"><g/></g></g><g fill="#ff751f" fill-opacity="1"><g transform="translate(55.587148, 5.572309)"><g><path d="M 3.078125 0.1875 C 2.960938 0.1875 2.894531 0.117188 2.875 -0.015625 C 2.84375 -0.171875 2.816406 -0.394531 2.796875 -0.6875 L 2.71875 -1.359375 C 2.707031 -1.460938 2.679688 -1.5625 2.640625 -1.65625 C 2.597656 -1.789062 2.546875 -1.859375 2.484375 -1.859375 C 2.429688 -1.859375 2.332031 -1.8125 2.1875 -1.71875 C 2.039062 -1.632812 1.945312 -1.566406 1.90625 -1.515625 C 1.90625 -1.378906 1.910156 -1.242188 1.921875 -1.109375 L 1.984375 -0.515625 C 2.015625 -0.285156 2.03125 -0.0976562 2.03125 0.046875 C 2.03125 0.109375 2.007812 0.160156 1.96875 0.203125 C 1.925781 0.242188 1.875 0.265625 1.8125 0.265625 C 1.75 0.265625 1.695312 0.242188 1.65625 0.203125 C 1.613281 0.160156 1.59375 0.109375 1.59375 0.046875 C 1.59375 -0.128906 1.570312 -0.390625 1.53125 -0.734375 C 1.5 -1.078125 1.484375 -1.335938 1.484375 -1.515625 C 1.484375 -1.671875 1.460938 -1.789062 1.421875 -1.875 C 1.316406 -1.832031 1.210938 -1.757812 1.109375 -1.65625 L 0.859375 -1.359375 C 0.828125 -1.328125 0.789062 -1.28125 0.75 -1.21875 C 0.75 -1.132812 0.738281 -1.003906 0.71875 -0.828125 C 0.695312 -0.660156 0.6875 -0.535156 0.6875 -0.453125 C 0.6875 -0.410156 0.691406 -0.347656 0.703125 -0.265625 C 0.722656 -0.191406 0.734375 -0.132812 0.734375 -0.09375 C 0.734375 -0.0390625 0.710938 0.00390625 0.671875 0.046875 C 0.628906 0.0859375 0.578125 0.109375 0.515625 0.109375 C 0.347656 0.109375 0.265625 -0.078125 0.265625 -0.453125 C 0.265625 -0.535156 0.269531 -0.664062 0.28125 -0.84375 C 0.300781 -1.019531 0.3125 -1.148438 0.3125 -1.234375 C 0.3125 -1.304688 0.300781 -1.421875 0.28125 -1.578125 C 0.269531 -1.734375 0.265625 -1.851562 0.265625 -1.9375 C 0.265625 -2.269531 0.34375 -2.4375 0.5 -2.4375 C 0.550781 -2.4375 0.597656 -2.410156 0.640625 -2.359375 C 0.691406 -2.304688 0.71875 -2.25 0.71875 -2.1875 C 0.71875 -2.164062 0.710938 -2.125 0.703125 -2.0625 C 0.703125 -2.007812 0.703125 -1.96875 0.703125 -1.9375 L 0.703125 -1.703125 C 0.773438 -1.859375 0.882812 -2 1.03125 -2.125 C 1.1875 -2.25 1.316406 -2.3125 1.421875 -2.3125 C 1.648438 -2.3125 1.804688 -2.195312 1.890625 -1.96875 C 1.972656 -2.070312 2.066406 -2.148438 2.171875 -2.203125 C 2.285156 -2.265625 2.414062 -2.296875 2.5625 -2.296875 C 2.800781 -2.296875 2.96875 -2.160156 3.0625 -1.890625 C 3.070312 -1.835938 3.097656 -1.632812 3.140625 -1.28125 C 3.179688 -1.03125 3.234375 -0.613281 3.296875 -0.03125 C 3.304688 0.03125 3.285156 0.0820312 3.234375 0.125 C 3.191406 0.164062 3.140625 0.1875 3.078125 0.1875 Z M 3.078125 0.1875 "/></g></g></g><g fill="#ff751f" fill-opacity="1"><g transform="translate(59.232567, 5.572309)"><g><path d="M 1.125 0.125 C 0.875 0.125 0.664062 0.0351562 0.5 -0.140625 C 0.300781 -0.335938 0.195312 -0.609375 0.1875 -0.953125 C 0.175781 -1.285156 0.257812 -1.578125 0.4375 -1.828125 C 0.632812 -2.117188 0.914062 -2.265625 1.28125 -2.265625 C 1.570312 -2.265625 1.796875 -2.132812 1.953125 -1.875 C 2.066406 -1.65625 2.125 -1.394531 2.125 -1.09375 C 2.113281 -0.769531 2.03125 -0.492188 1.875 -0.265625 C 1.6875 -0.00390625 1.4375 0.125 1.125 0.125 Z M 1.25 -1.828125 C 1.039062 -1.828125 0.875 -1.722656 0.75 -1.515625 C 0.65625 -1.347656 0.609375 -1.160156 0.609375 -0.953125 C 0.609375 -0.742188 0.664062 -0.578125 0.78125 -0.453125 C 0.882812 -0.359375 1 -0.3125 1.125 -0.3125 C 1.28125 -0.3125 1.410156 -0.367188 1.515625 -0.484375 C 1.640625 -0.597656 1.707031 -0.765625 1.71875 -0.984375 C 1.738281 -1.546875 1.582031 -1.828125 1.25 -1.828125 Z M 1.25 -1.828125 "/></g></g></g><g fill="#ff751f" fill-opacity="1"><g transform="translate(61.75382, 5.572309)"><g><path d="M 2.015625 -1.625 C 2.003906 -1.4375 1.925781 -1.34375 1.78125 -1.34375 C 1.65625 -1.34375 1.59375 -1.414062 1.59375 -1.5625 C 1.59375 -1.59375 1.59375 -1.644531 1.59375 -1.71875 L 1.59375 -1.890625 C 1.351562 -1.867188 1.164062 -1.804688 1.03125 -1.703125 C 0.90625 -1.609375 0.796875 -1.46875 0.703125 -1.28125 L 0.71875 -0.078125 C 0.71875 0.0664062 0.644531 0.140625 0.5 0.140625 C 0.363281 0.140625 0.296875 0.0664062 0.296875 -0.078125 L 0.296875 -1.609375 C 0.296875 -1.660156 0.296875 -1.734375 0.296875 -1.828125 C 0.304688 -1.921875 0.3125 -1.992188 0.3125 -2.046875 C 0.3125 -2.191406 0.378906 -2.265625 0.515625 -2.265625 C 0.648438 -2.265625 0.71875 -2.144531 0.71875 -1.90625 C 1 -2.175781 1.3125 -2.3125 1.65625 -2.3125 C 1.769531 -2.3125 1.859375 -2.265625 1.921875 -2.171875 C 1.984375 -2.085938 2.015625 -1.953125 2.015625 -1.765625 C 2.015625 -1.691406 2.015625 -1.644531 2.015625 -1.625 Z M 2.015625 -1.625 "/></g></g></g><g clip-path="url(#6dbe94127f)"><g fill="#ff751f" fill-opacity="1"><g transform="translate(64.071672, 5.572309)"><g><path d="M 1.328125 0.09375 C 0.992188 0.09375 0.726562 0.015625 0.53125 -0.140625 C 0.300781 -0.328125 0.1875 -0.582031 0.1875 -0.90625 C 0.1875 -1.289062 0.28125 -1.613281 0.46875 -1.875 C 0.664062 -2.144531 0.929688 -2.28125 1.265625 -2.28125 C 1.503906 -2.28125 1.703125 -2.242188 1.859375 -2.171875 C 2.046875 -2.066406 2.140625 -1.910156 2.140625 -1.703125 C 2.140625 -1.554688 2.054688 -1.421875 1.890625 -1.296875 C 1.816406 -1.242188 1.664062 -1.164062 1.4375 -1.0625 L 0.59375 -0.65625 C 0.675781 -0.539062 0.773438 -0.453125 0.890625 -0.390625 C 1.015625 -0.328125 1.160156 -0.296875 1.328125 -0.296875 C 1.429688 -0.296875 1.550781 -0.316406 1.6875 -0.359375 C 1.851562 -0.398438 1.960938 -0.457031 2.015625 -0.53125 C 2.066406 -0.613281 2.117188 -0.65625 2.171875 -0.65625 C 2.222656 -0.65625 2.269531 -0.632812 2.3125 -0.59375 C 2.351562 -0.5625 2.375 -0.519531 2.375 -0.46875 C 2.375 -0.300781 2.242188 -0.160156 1.984375 -0.046875 C 1.753906 0.046875 1.535156 0.09375 1.328125 0.09375 Z M 1.265625 -1.890625 C 1.085938 -1.890625 0.9375 -1.820312 0.8125 -1.6875 C 0.695312 -1.550781 0.613281 -1.34375 0.5625 -1.0625 L 1.234375 -1.390625 C 1.492188 -1.515625 1.679688 -1.625 1.796875 -1.71875 C 1.671875 -1.832031 1.492188 -1.890625 1.265625 -1.890625 Z M 1.265625 -1.890625 "/></g></g></g></g></g></g></svg>