<svg xmlns="http://www.w3.org/2000/svg" xmlns:xlink="http://www.w3.org/1999/xlink" width="2000" zoomAndPan="magnify" viewBox="0 0 1500 1499.999933" height="2000" preserveAspectRatio="xMidYMid meet" version="1.0"><defs><g/><clipPath id="c4f27db6e1"><path d="M 291.347656 606.699219 L 577.847656 606.699219 L 577.847656 893.199219 L 291.347656 893.199219 Z M 291.347656 606.699219 " clip-rule="nonzero"/></clipPath><clipPath id="bf2d35dc2a"><path d="M 434 749 L 577.847656 749 L 577.847656 893.199219 L 434 893.199219 Z M 434 749 " clip-rule="nonzero"/></clipPath><clipPath id="ee922ed742"><path d="M 291.347656 606.699219 L 577.847656 606.699219 L 577.847656 893.199219 L 291.347656 893.199219 Z M 291.347656 606.699219 " clip-rule="nonzero"/></clipPath></defs><g clip-path="url(#c4f27db6e1)"><path fill="#3dbdec" d="M 506.222656 606.699219 C 466.664062 606.699219 434.597656 638.765625 434.597656 678.324219 L 434.597656 749.945312 L 434.605469 749.945312 L 434.59375 749.949219 L 362.972656 749.949219 C 323.414062 749.949219 291.347656 782.015625 291.347656 821.574219 C 291.347656 861.128906 323.414062 893.195312 362.972656 893.195312 L 434.597656 893.195312 L 434.597656 893.199219 L 577.847656 893.199219 L 577.847656 678.324219 C 577.847656 638.765625 545.777344 606.699219 506.222656 606.699219 Z M 506.222656 606.699219 " fill-opacity="1" fill-rule="nonzero"/></g><g clip-path="url(#bf2d35dc2a)"><path fill="#1f2b5b" d="M 434.597656 749.949219 L 577.847656 749.949219 L 577.847656 893.199219 L 434.597656 893.199219 Z M 434.597656 749.949219 " fill-opacity="1" fill-rule="nonzero"/></g><g clip-path="url(#ee922ed742)"><path fill="#3dbdec" d="M 577.847656 678.324219 L 577.847656 749.945312 L 434.597656 749.945312 L 434.597656 678.324219 C 434.597656 638.765625 466.664062 606.699219 506.222656 606.699219 C 545.777344 606.699219 577.847656 638.765625 577.847656 678.324219 Z M 291.347656 821.574219 C 291.347656 861.128906 323.414062 893.195312 362.972656 893.195312 L 434.59375 893.195312 L 434.59375 749.949219 L 362.972656 749.949219 C 323.414062 749.949219 291.347656 782.015625 291.347656 821.574219 Z M 548.878906 807.082031 L 520.714844 807.082031 L 520.714844 778.921875 L 491.734375 778.921875 L 491.734375 807.082031 L 463.570312 807.082031 L 463.570312 836.0625 L 491.734375 836.0625 L 491.734375 864.222656 L 520.710938 864.222656 L 520.710938 836.0625 L 548.871094 836.0625 L 548.871094 807.082031 Z M 548.878906 807.082031 " fill-opacity="1" fill-rule="nonzero"/></g><g fill="#1f2b5b" fill-opacity="1"><g transform="translate(602.863469, 741.217428)"><g><path d="M 4.96875 -1.34375 L 4.96875 -65.09375 C 4.96875 -65.988281 5.414062 -66.4375 6.3125 -66.4375 L 22.78125 -66.4375 C 23.6875 -66.4375 24.140625 -65.988281 24.140625 -65.09375 L 24.140625 -36.484375 C 24.140625 -35.585938 24.585938 -35.140625 25.484375 -35.140625 L 27.109375 -35.140625 C 28.015625 -35.140625 28.46875 -35.585938 28.46875 -36.484375 L 28.46875 -38.046875 C 28.46875 -38.941406 28.914062 -39.390625 29.8125 -39.390625 L 31.296875 -39.390625 C 32.203125 -39.390625 32.65625 -39.84375 32.65625 -40.75 L 32.65625 -65.09375 C 32.65625 -65.988281 33.101562 -66.4375 34 -66.4375 L 50.46875 -66.4375 C 51.363281 -66.4375 51.8125 -65.988281 51.8125 -65.09375 L 51.8125 -1.34375 C 51.8125 -0.445312 51.363281 0 50.46875 0 L 34 0 C 33.101562 0 32.65625 -0.445312 32.65625 -1.34375 L 32.65625 -29.953125 C 32.65625 -30.847656 32.203125 -31.296875 31.296875 -31.296875 L 29.8125 -31.296875 C 28.914062 -31.296875 28.46875 -30.847656 28.46875 -29.953125 L 28.46875 -28.390625 C 28.46875 -27.492188 28.015625 -27.046875 27.109375 -27.046875 L 25.484375 -27.046875 C 24.585938 -27.046875 24.140625 -26.597656 24.140625 -25.703125 L 24.140625 -1.34375 C 24.140625 -0.445312 23.6875 0 22.78125 0 L 6.3125 0 C 5.414062 0 4.96875 -0.445312 4.96875 -1.34375 Z M 4.96875 -1.34375 "/></g></g></g><g fill="#1f2b5b" fill-opacity="1"><g transform="translate(659.638462, 741.217428)"><g><path d="M 4.96875 -1.34375 L 4.96875 -65.09375 C 4.96875 -65.988281 5.414062 -66.4375 6.3125 -66.4375 L 46.203125 -66.4375 C 47.109375 -66.4375 47.5625 -65.988281 47.5625 -65.09375 L 47.5625 -48.625 C 47.5625 -47.726562 47.109375 -47.28125 46.203125 -47.28125 L 34 -47.28125 C 33.101562 -47.28125 32.65625 -47.726562 32.65625 -48.625 L 32.65625 -50.1875 C 32.65625 -51.082031 32.203125 -51.53125 31.296875 -51.53125 L 29.75 -51.53125 C 28.84375 -51.53125 28.390625 -51.984375 28.390625 -52.890625 L 28.390625 -60.828125 C 28.390625 -61.734375 27.941406 -62.1875 27.046875 -62.1875 L 25.484375 -62.1875 C 24.585938 -62.1875 24.140625 -61.734375 24.140625 -60.828125 L 24.140625 -38.828125 C 24.140625 -37.929688 24.585938 -37.484375 25.484375 -37.484375 L 39.25 -37.484375 C 40.15625 -37.484375 40.609375 -37.03125 40.609375 -36.125 L 40.609375 -30.3125 C 40.609375 -29.414062 40.15625 -28.96875 39.25 -28.96875 L 25.484375 -28.96875 C 24.585938 -28.96875 24.140625 -28.515625 24.140625 -27.609375 L 24.140625 -5.609375 C 24.140625 -4.710938 24.585938 -4.265625 25.484375 -4.265625 L 27.046875 -4.265625 C 27.941406 -4.265625 28.390625 -4.710938 28.390625 -5.609375 L 28.390625 -13.5625 C 28.390625 -14.457031 28.84375 -14.90625 29.75 -14.90625 L 31.296875 -14.90625 C 32.203125 -14.90625 32.65625 -15.351562 32.65625 -16.25 L 32.65625 -17.8125 C 32.65625 -18.71875 33.101562 -19.171875 34 -19.171875 L 46.203125 -19.171875 C 47.109375 -19.171875 47.5625 -18.71875 47.5625 -17.8125 L 47.5625 -1.34375 C 47.5625 -0.445312 47.109375 0 46.203125 0 L 6.3125 0 C 5.414062 0 4.96875 -0.445312 4.96875 -1.34375 Z M 4.96875 -1.34375 "/></g></g></g><g fill="#1f2b5b" fill-opacity="1"><g transform="translate(710.735962, 741.217428)"><g><path d="M 4.96875 -1.34375 L 4.96875 -48.0625 C 4.96875 -48.957031 5.414062 -49.40625 6.3125 -49.40625 L 8.65625 -49.40625 C 9.5625 -49.40625 10.015625 -49.851562 10.015625 -50.75 L 10.015625 -52.3125 C 10.015625 -53.21875 10.460938 -53.671875 11.359375 -53.671875 L 12.921875 -53.671875 C 13.816406 -53.671875 14.265625 -54.117188 14.265625 -55.015625 L 14.265625 -56.578125 C 14.265625 -57.472656 14.710938 -57.921875 15.609375 -57.921875 L 17.171875 -57.921875 C 18.078125 -57.921875 18.53125 -58.367188 18.53125 -59.265625 L 18.53125 -60.828125 C 18.53125 -61.734375 18.976562 -62.1875 19.875 -62.1875 L 20.578125 -62.1875 C 21.484375 -62.1875 21.9375 -62.632812 21.9375 -63.53125 L 21.9375 -65.09375 C 21.9375 -65.988281 22.382812 -66.4375 23.28125 -66.4375 L 46.203125 -66.4375 C 47.109375 -66.4375 47.5625 -65.988281 47.5625 -65.09375 L 47.5625 -63.53125 C 47.5625 -62.632812 48.007812 -62.1875 48.90625 -62.1875 L 50.46875 -62.1875 C 51.363281 -62.1875 51.8125 -61.734375 51.8125 -60.828125 L 51.8125 -1.34375 C 51.8125 -0.445312 51.363281 0 50.46875 0 L 34 0 C 33.101562 0 32.65625 -0.445312 32.65625 -1.34375 L 32.65625 -23.921875 C 32.65625 -24.816406 32.203125 -25.265625 31.296875 -25.265625 L 29.75 -25.265625 C 28.84375 -25.265625 28.390625 -24.816406 28.390625 -23.921875 L 28.390625 -22.359375 C 28.390625 -21.460938 27.941406 -21.015625 27.046875 -21.015625 L 25.484375 -21.015625 C 24.585938 -21.015625 24.140625 -20.5625 24.140625 -19.65625 L 24.140625 -1.34375 C 24.140625 -0.445312 23.6875 0 22.78125 0 L 6.3125 0 C 5.414062 0 4.96875 -0.445312 4.96875 -1.34375 Z M 25.484375 -29.109375 L 27.046875 -29.109375 C 27.941406 -29.109375 28.390625 -29.554688 28.390625 -30.453125 L 28.390625 -32.015625 C 28.390625 -32.910156 28.84375 -33.359375 29.75 -33.359375 L 31.296875 -33.359375 C 32.203125 -33.359375 32.65625 -33.8125 32.65625 -34.71875 L 32.65625 -60.828125 C 32.65625 -61.734375 32.203125 -62.1875 31.296875 -62.1875 L 29.75 -62.1875 C 28.84375 -62.1875 28.390625 -61.734375 28.390625 -60.828125 L 28.390625 -59.265625 C 28.390625 -58.367188 27.941406 -57.921875 27.046875 -57.921875 L 25.484375 -57.921875 C 24.585938 -57.921875 24.140625 -57.472656 24.140625 -56.578125 L 24.140625 -30.453125 C 24.140625 -29.554688 24.585938 -29.109375 25.484375 -29.109375 Z M 25.484375 -29.109375 "/></g></g></g><g fill="#1f2b5b" fill-opacity="1"><g transform="translate(767.510954, 741.217428)"><g><path d="M 4.96875 -1.34375 L 4.96875 -65.09375 C 4.96875 -65.988281 5.414062 -66.4375 6.3125 -66.4375 L 22.78125 -66.4375 C 23.6875 -66.4375 24.140625 -65.988281 24.140625 -65.09375 L 24.140625 -5.609375 C 24.140625 -4.710938 24.585938 -4.265625 25.484375 -4.265625 L 27.046875 -4.265625 C 27.941406 -4.265625 28.390625 -4.710938 28.390625 -5.609375 L 28.390625 -13.5625 C 28.390625 -14.457031 28.84375 -14.90625 29.75 -14.90625 L 31.375 -14.90625 C 32.269531 -14.90625 32.71875 -15.351562 32.71875 -16.25 L 32.71875 -17.8125 C 32.71875 -18.71875 33.171875 -19.171875 34.078125 -19.171875 L 46.203125 -19.171875 C 47.109375 -19.171875 47.5625 -18.71875 47.5625 -17.8125 L 47.5625 -5.609375 C 47.5625 -4.710938 47.109375 -4.265625 46.203125 -4.265625 L 44.65625 -4.265625 C 43.75 -4.265625 43.296875 -3.8125 43.296875 -2.90625 L 43.296875 -1.34375 C 43.296875 -0.445312 42.847656 0 41.953125 0 L 6.3125 0 C 5.414062 0 4.96875 -0.445312 4.96875 -1.34375 Z M 4.96875 -1.34375 "/></g></g></g><g fill="#1f2b5b" fill-opacity="1"><g transform="translate(817.189089, 741.217428)"><g><path d="M 19.234375 -1.34375 L 19.234375 -60.90625 C 19.234375 -61.800781 18.785156 -62.25 17.890625 -62.25 L 16.25 -62.25 C 15.351562 -62.25 14.90625 -61.800781 14.90625 -60.90625 L 14.90625 -52.890625 C 14.90625 -51.984375 14.457031 -51.53125 13.5625 -51.53125 L 12 -51.53125 C 11.09375 -51.53125 10.640625 -51.082031 10.640625 -50.1875 L 10.640625 -48.625 C 10.640625 -47.726562 10.191406 -47.28125 9.296875 -47.28125 L 3.484375 -47.28125 C 2.578125 -47.28125 2.125 -47.726562 2.125 -48.625 L 2.125 -65.09375 C 2.125 -65.988281 2.578125 -66.4375 3.484375 -66.4375 L 54.15625 -66.4375 C 55.0625 -66.4375 55.515625 -65.988281 55.515625 -65.09375 L 55.515625 -48.625 C 55.515625 -47.726562 55.0625 -47.28125 54.15625 -47.28125 L 48.34375 -47.28125 C 47.4375 -47.28125 46.984375 -47.726562 46.984375 -48.625 L 46.984375 -50.1875 C 46.984375 -51.082031 46.535156 -51.53125 45.640625 -51.53125 L 44.078125 -51.53125 C 43.179688 -51.53125 42.734375 -51.984375 42.734375 -52.890625 L 42.734375 -60.90625 C 42.734375 -61.800781 42.285156 -62.25 41.390625 -62.25 L 39.75 -62.25 C 38.851562 -62.25 38.40625 -61.800781 38.40625 -60.90625 L 38.40625 -1.34375 C 38.40625 -0.445312 37.953125 0 37.046875 0 L 20.578125 0 C 19.679688 0 19.234375 -0.445312 19.234375 -1.34375 Z M 19.234375 -1.34375 "/></g></g></g><g fill="#1f2b5b" fill-opacity="1"><g transform="translate(874.815694, 741.217428)"><g><path d="M 4.96875 -1.34375 L 4.96875 -65.09375 C 4.96875 -65.988281 5.414062 -66.4375 6.3125 -66.4375 L 22.78125 -66.4375 C 23.6875 -66.4375 24.140625 -65.988281 24.140625 -65.09375 L 24.140625 -36.484375 C 24.140625 -35.585938 24.585938 -35.140625 25.484375 -35.140625 L 27.109375 -35.140625 C 28.015625 -35.140625 28.46875 -35.585938 28.46875 -36.484375 L 28.46875 -38.046875 C 28.46875 -38.941406 28.914062 -39.390625 29.8125 -39.390625 L 31.296875 -39.390625 C 32.203125 -39.390625 32.65625 -39.84375 32.65625 -40.75 L 32.65625 -65.09375 C 32.65625 -65.988281 33.101562 -66.4375 34 -66.4375 L 50.46875 -66.4375 C 51.363281 -66.4375 51.8125 -65.988281 51.8125 -65.09375 L 51.8125 -1.34375 C 51.8125 -0.445312 51.363281 0 50.46875 0 L 34 0 C 33.101562 0 32.65625 -0.445312 32.65625 -1.34375 L 32.65625 -29.953125 C 32.65625 -30.847656 32.203125 -31.296875 31.296875 -31.296875 L 29.8125 -31.296875 C 28.914062 -31.296875 28.46875 -30.847656 28.46875 -29.953125 L 28.46875 -28.390625 C 28.46875 -27.492188 28.015625 -27.046875 27.109375 -27.046875 L 25.484375 -27.046875 C 24.585938 -27.046875 24.140625 -26.597656 24.140625 -25.703125 L 24.140625 -1.34375 C 24.140625 -0.445312 23.6875 0 22.78125 0 L 6.3125 0 C 5.414062 0 4.96875 -0.445312 4.96875 -1.34375 Z M 4.96875 -1.34375 "/></g></g></g><g fill="#1f2b5b" fill-opacity="1"><g transform="translate(931.590675, 741.217428)"><g/></g></g><g fill="#ffde59" fill-opacity="1"><g transform="translate(949.340002, 741.217428)"><g><path d="M 7.453125 -1.34375 L 7.453125 -2.90625 C 7.453125 -3.8125 7.003906 -4.265625 6.109375 -4.265625 L 4.546875 -4.265625 C 3.640625 -4.265625 3.1875 -4.710938 3.1875 -5.609375 L 3.1875 -17.8125 C 3.1875 -18.71875 3.640625 -19.171875 4.546875 -19.171875 L 21.015625 -19.171875 C 21.910156 -19.171875 22.359375 -18.71875 22.359375 -17.8125 L 22.359375 -5.609375 C 22.359375 -4.710938 22.804688 -4.265625 23.703125 -4.265625 L 25.265625 -4.265625 C 26.171875 -4.265625 26.625 -4.710938 26.625 -5.609375 L 26.625 -7.171875 C 26.625 -8.066406 27.070312 -8.515625 27.96875 -8.515625 L 30.3125 -8.515625 C 31.207031 -8.515625 31.65625 -8.960938 31.65625 -9.859375 L 31.65625 -26.765625 C 31.65625 -27.660156 31.207031 -28.109375 30.3125 -28.109375 L 28.75 -28.109375 C 27.851562 -28.109375 27.40625 -28.554688 27.40625 -29.453125 L 27.40625 -31.015625 C 27.40625 -31.921875 26.953125 -32.375 26.046875 -32.375 L 13.84375 -32.375 C 12.945312 -32.375 12.5 -32.820312 12.5 -33.71875 L 12.5 -35.28125 C 12.5 -36.175781 12.046875 -36.625 11.140625 -36.625 L 9.578125 -36.625 C 8.679688 -36.625 8.234375 -37.078125 8.234375 -37.984375 L 8.234375 -39.46875 C 8.234375 -40.414062 7.757812 -40.890625 6.8125 -40.890625 L 5.390625 -40.890625 C 4.441406 -40.890625 3.96875 -41.363281 3.96875 -42.3125 L 3.96875 -56.5 C 3.96875 -57.445312 4.441406 -57.921875 5.390625 -57.921875 L 6.8125 -57.921875 C 7.757812 -57.921875 8.234375 -58.394531 8.234375 -59.34375 L 8.234375 -60.828125 C 8.234375 -61.734375 8.679688 -62.1875 9.578125 -62.1875 L 11.140625 -62.1875 C 12.046875 -62.1875 12.5 -62.632812 12.5 -63.53125 L 12.5 -65.09375 C 12.5 -65.988281 12.945312 -66.4375 13.84375 -66.4375 L 40.25 -66.4375 C 41.144531 -66.4375 41.59375 -65.988281 41.59375 -65.09375 L 41.59375 -63.53125 C 41.59375 -62.632812 42.046875 -62.1875 42.953125 -62.1875 L 48.0625 -62.1875 C 48.957031 -62.1875 49.40625 -61.734375 49.40625 -60.828125 L 49.40625 -48.625 C 49.40625 -47.726562 48.957031 -47.28125 48.0625 -47.28125 L 37.265625 -47.28125 C 36.367188 -47.28125 35.921875 -47.726562 35.921875 -48.625 L 35.921875 -50.1875 C 35.921875 -51.082031 35.46875 -51.53125 34.5625 -51.53125 L 33 -51.53125 C 32.101562 -51.53125 31.65625 -51.984375 31.65625 -52.890625 L 31.65625 -60.828125 C 31.65625 -61.734375 31.207031 -62.1875 30.3125 -62.1875 L 28.75 -62.1875 C 27.851562 -62.1875 27.40625 -61.734375 27.40625 -60.828125 L 27.40625 -59.265625 C 27.40625 -58.367188 26.953125 -57.921875 26.046875 -57.921875 L 24.484375 -57.921875 C 23.585938 -57.921875 23.140625 -57.472656 23.140625 -56.578125 L 23.140625 -42.234375 C 23.140625 -41.335938 23.585938 -40.890625 24.484375 -40.890625 L 26.765625 -40.890625 C 27.660156 -40.890625 28.109375 -40.4375 28.109375 -39.53125 L 28.109375 -37.984375 C 28.109375 -37.078125 28.554688 -36.625 29.453125 -36.625 L 40.953125 -36.625 C 41.859375 -36.625 42.3125 -36.175781 42.3125 -35.28125 L 42.3125 -33.71875 C 42.3125 -32.820312 42.757812 -32.375 43.65625 -32.375 L 45.21875 -32.375 C 46.113281 -32.375 46.5625 -31.921875 46.5625 -31.015625 L 46.5625 -29.53125 C 46.5625 -28.582031 47.035156 -28.109375 47.984375 -28.109375 L 49.40625 -28.109375 C 50.351562 -28.109375 50.828125 -27.632812 50.828125 -26.6875 L 50.828125 -9.9375 C 50.828125 -8.988281 50.351562 -8.515625 49.40625 -8.515625 L 47.984375 -8.515625 C 47.035156 -8.515625 46.5625 -8.039062 46.5625 -7.09375 L 46.5625 -5.609375 C 46.5625 -4.710938 46.113281 -4.265625 45.21875 -4.265625 L 43.65625 -4.265625 C 42.757812 -4.265625 42.3125 -3.8125 42.3125 -2.90625 L 42.3125 -1.34375 C 42.3125 -0.445312 41.882812 0 41.03125 0 L 8.734375 0 C 7.878906 0 7.453125 -0.445312 7.453125 -1.34375 Z M 7.453125 -1.34375 "/></g></g></g><g fill="#ffde59" fill-opacity="1"><g transform="translate(1004.056901, 741.217428)"><g><path d="M 18.8125 -1.34375 L 18.8125 -28.03125 C 18.8125 -28.9375 18.363281 -29.390625 17.46875 -29.390625 L 12.703125 -29.390625 C 11.804688 -29.390625 11.359375 -29.835938 11.359375 -30.734375 L 11.359375 -32.296875 C 11.359375 -33.191406 10.910156 -33.640625 10.015625 -33.640625 L 8.453125 -33.640625 C 7.546875 -33.640625 7.09375 -34.09375 7.09375 -35 L 7.09375 -36.5625 C 7.09375 -37.457031 6.644531 -37.90625 5.75 -37.90625 L 4.1875 -37.90625 C 3.289062 -37.90625 2.84375 -38.351562 2.84375 -39.25 L 2.84375 -65.09375 C 2.84375 -65.988281 3.289062 -66.4375 4.1875 -66.4375 L 20.65625 -66.4375 C 21.550781 -66.4375 22 -65.988281 22 -65.09375 L 22 -35 C 22 -34.09375 22.453125 -33.640625 23.359375 -33.640625 L 24.921875 -33.640625 C 25.816406 -33.640625 26.265625 -33.191406 26.265625 -32.296875 L 26.265625 -30.734375 C 26.265625 -29.835938 26.710938 -29.390625 27.609375 -29.390625 L 29.171875 -29.390625 C 30.066406 -29.390625 30.515625 -29.835938 30.515625 -30.734375 L 30.515625 -32.296875 C 30.515625 -33.191406 30.96875 -33.640625 31.875 -33.640625 L 33.4375 -33.640625 C 34.332031 -33.640625 34.78125 -34.09375 34.78125 -35 L 34.78125 -65.09375 C 34.78125 -65.988281 35.226562 -66.4375 36.125 -66.4375 L 52.59375 -66.4375 C 53.5 -66.4375 53.953125 -65.988281 53.953125 -65.09375 L 53.953125 -39.25 C 53.953125 -38.351562 53.5 -37.90625 52.59375 -37.90625 L 51.03125 -37.90625 C 50.132812 -37.90625 49.6875 -37.457031 49.6875 -36.5625 L 49.6875 -35 C 49.6875 -34.09375 49.238281 -33.640625 48.34375 -33.640625 L 46.78125 -33.640625 C 45.882812 -33.640625 45.4375 -33.191406 45.4375 -32.296875 L 45.4375 -30.734375 C 45.4375 -29.835938 44.984375 -29.390625 44.078125 -29.390625 L 39.328125 -29.390625 C 38.429688 -29.390625 37.984375 -28.9375 37.984375 -28.03125 L 37.984375 -1.34375 C 37.984375 -0.445312 37.53125 0 36.625 0 L 20.15625 0 C 19.257812 0 18.8125 -0.445312 18.8125 -1.34375 Z M 18.8125 -1.34375 "/></g></g></g><g fill="#ffde59" fill-opacity="1"><g transform="translate(1060.831894, 741.217428)"><g><path d="M 4.96875 -1.34375 L 4.96875 -65.09375 C 4.96875 -65.988281 5.414062 -66.4375 6.3125 -66.4375 L 10.078125 -66.4375 C 10.972656 -66.4375 11.421875 -65.988281 11.421875 -65.09375 L 11.421875 -63.53125 C 11.421875 -62.632812 11.875 -62.1875 12.78125 -62.1875 L 14.34375 -62.1875 C 15.238281 -62.1875 15.6875 -61.734375 15.6875 -60.828125 L 15.6875 -59.265625 C 15.6875 -58.367188 16.132812 -57.921875 17.03125 -57.921875 L 18.59375 -57.921875 C 19.5 -57.921875 19.953125 -57.472656 19.953125 -56.578125 L 19.953125 -55.015625 C 19.953125 -54.117188 20.398438 -53.671875 21.296875 -53.671875 L 22.859375 -53.671875 C 23.753906 -53.671875 24.203125 -53.21875 24.203125 -52.3125 L 24.203125 -50.75 C 24.203125 -49.851562 24.648438 -49.40625 25.546875 -49.40625 L 27.109375 -49.40625 C 28.015625 -49.40625 28.46875 -48.957031 28.46875 -48.0625 L 28.46875 -46.5 C 28.46875 -45.59375 28.914062 -45.140625 29.8125 -45.140625 L 31.375 -45.140625 C 32.269531 -45.140625 32.71875 -44.691406 32.71875 -43.796875 L 32.71875 -42.234375 C 32.71875 -41.335938 33.171875 -40.890625 34.078125 -40.890625 L 35.640625 -40.890625 C 36.535156 -40.890625 36.984375 -40.4375 36.984375 -39.53125 L 36.984375 -37.984375 C 36.984375 -37.078125 37.429688 -36.625 38.328125 -36.625 L 39.890625 -36.625 C 40.785156 -36.625 41.234375 -37.078125 41.234375 -37.984375 L 41.234375 -39.53125 C 41.234375 -40.4375 40.785156 -40.890625 39.890625 -40.890625 L 38.328125 -40.890625 C 37.429688 -40.890625 36.984375 -41.335938 36.984375 -42.234375 L 36.984375 -43.796875 C 36.984375 -44.691406 36.535156 -45.140625 35.640625 -45.140625 L 34.078125 -45.140625 C 33.171875 -45.140625 32.71875 -45.59375 32.71875 -46.5 L 32.71875 -65.09375 C 32.71875 -65.988281 33.171875 -66.4375 34.078125 -66.4375 L 50.546875 -66.4375 C 51.441406 -66.4375 51.890625 -65.988281 51.890625 -65.09375 L 51.890625 -1.34375 C 51.890625 -0.445312 51.441406 0 50.546875 0 L 34.078125 0 C 33.171875 0 32.71875 -0.445312 32.71875 -1.34375 L 32.71875 -35.28125 C 32.71875 -36.175781 32.269531 -36.625 31.375 -36.625 L 29.8125 -36.625 C 28.914062 -36.625 28.46875 -37.078125 28.46875 -37.984375 L 28.46875 -39.53125 C 28.46875 -40.4375 28.015625 -40.890625 27.109375 -40.890625 L 25.484375 -40.890625 C 24.585938 -40.890625 24.140625 -40.4375 24.140625 -39.53125 L 24.140625 -1.34375 C 24.140625 -0.445312 23.6875 0 22.78125 0 L 6.3125 0 C 5.414062 0 4.96875 -0.445312 4.96875 -1.34375 Z M 4.96875 -1.34375 "/></g></g></g><g fill="#ffde59" fill-opacity="1"><g transform="translate(1117.677852, 741.217428)"><g><path d="M 13.484375 -1.34375 L 13.484375 -2.90625 C 13.484375 -3.8125 13.035156 -4.265625 12.140625 -4.265625 L 10.578125 -4.265625 C 9.679688 -4.265625 9.234375 -4.710938 9.234375 -5.609375 L 9.234375 -7.171875 C 9.234375 -8.066406 8.78125 -8.515625 7.875 -8.515625 L 6.3125 -8.515625 C 5.414062 -8.515625 4.96875 -8.960938 4.96875 -9.859375 L 4.96875 -56.578125 C 4.96875 -57.472656 5.414062 -57.921875 6.3125 -57.921875 L 7.875 -57.921875 C 8.78125 -57.921875 9.234375 -58.367188 9.234375 -59.265625 L 9.234375 -60.828125 C 9.234375 -61.734375 9.679688 -62.1875 10.578125 -62.1875 L 12.140625 -62.1875 C 13.035156 -62.1875 13.484375 -62.632812 13.484375 -63.53125 L 13.484375 -65.09375 C 13.484375 -65.988281 13.929688 -66.4375 14.828125 -66.4375 L 45.078125 -66.4375 C 46.023438 -66.4375 46.5 -65.960938 46.5 -65.015625 L 46.5 -63.609375 C 46.5 -62.660156 46.972656 -62.1875 47.921875 -62.1875 L 50.40625 -62.1875 C 51.34375 -62.1875 51.8125 -61.710938 51.8125 -60.765625 L 51.8125 -48.6875 C 51.8125 -47.75 51.34375 -47.28125 50.40625 -47.28125 L 38.328125 -47.28125 C 37.378906 -47.28125 36.90625 -47.75 36.90625 -48.6875 L 36.90625 -50.1875 C 36.90625 -51.082031 36.457031 -51.53125 35.5625 -51.53125 L 34.078125 -51.53125 C 33.128906 -51.53125 32.65625 -52.003906 32.65625 -52.953125 L 32.65625 -60.828125 C 32.65625 -61.734375 32.203125 -62.1875 31.296875 -62.1875 L 29.75 -62.1875 C 28.84375 -62.1875 28.390625 -61.734375 28.390625 -60.828125 L 28.390625 -59.265625 C 28.390625 -58.367188 27.941406 -57.921875 27.046875 -57.921875 L 25.484375 -57.921875 C 24.585938 -57.921875 24.140625 -57.472656 24.140625 -56.578125 L 24.140625 -9.859375 C 24.140625 -8.960938 24.585938 -8.515625 25.484375 -8.515625 L 27.046875 -8.515625 C 27.941406 -8.515625 28.390625 -8.066406 28.390625 -7.171875 L 28.390625 -5.609375 C 28.390625 -4.710938 28.84375 -4.265625 29.75 -4.265625 L 31.296875 -4.265625 C 32.203125 -4.265625 32.65625 -4.710938 32.65625 -5.609375 L 32.65625 -17.75 C 32.65625 -18.695312 33.128906 -19.171875 34.078125 -19.171875 L 50.40625 -19.171875 C 51.34375 -19.171875 51.8125 -18.695312 51.8125 -17.75 L 51.8125 -5.671875 C 51.8125 -4.734375 51.34375 -4.265625 50.40625 -4.265625 L 48.984375 -4.265625 C 48.035156 -4.265625 47.5625 -3.789062 47.5625 -2.84375 L 47.5625 -1.421875 C 47.5625 -0.472656 47.085938 0 46.140625 0 L 14.828125 0 C 13.929688 0 13.484375 -0.445312 13.484375 -1.34375 Z M 13.484375 -1.34375 "/></g></g></g><g fill="#000000" fill-opacity="1"><g transform="translate(599.11347, 860.824778)"><g><path d="M 19.953125 1.515625 C 15.273438 1.515625 11.3125 0.113281 8.0625 -2.6875 C 4.613281 -5.664062 2.890625 -9.515625 2.890625 -14.234375 C 2.890625 -19.960938 4.585938 -25.175781 7.984375 -29.875 C 11.773438 -35.082031 16.507812 -37.6875 22.1875 -37.6875 C 27.644531 -37.6875 31.695312 -36.457031 34.34375 -34 C 37.113281 -31.445312 38.5 -27.414062 38.5 -21.90625 C 38.5 -16.175781 36.941406 -11.003906 33.828125 -6.390625 C 30.242188 -1.117188 25.617188 1.515625 19.953125 1.515625 Z M 22.1875 -32.578125 C 18.125 -32.578125 14.679688 -30.554688 11.859375 -26.515625 C 9.253906 -22.796875 7.953125 -18.703125 7.953125 -14.234375 C 7.953125 -11.023438 9.140625 -8.421875 11.515625 -6.421875 C 13.785156 -4.523438 16.597656 -3.578125 19.953125 -3.578125 C 23.972656 -3.578125 27.296875 -5.609375 29.921875 -9.671875 C 32.253906 -13.304688 33.421875 -17.382812 33.421875 -21.90625 C 33.421875 -25.875 32.535156 -28.660156 30.765625 -30.265625 C 29.078125 -31.804688 26.21875 -32.578125 22.1875 -32.578125 Z M 22.1875 -32.578125 "/></g></g></g><g fill="#000000" fill-opacity="1"><g transform="translate(641.65729, 860.824778)"><g><path d="M 22.53125 1.765625 C 21.101562 1.765625 20.300781 0.984375 20.125 -0.578125 L 19.421875 -6.015625 C 19.191406 -7.953125 19.078125 -9.769531 19.078125 -11.46875 C 19.078125 -11.925781 19.101562 -12.710938 19.15625 -13.828125 C 19.21875 -14.941406 19.25 -15.726562 19.25 -16.1875 C 19.25 -19.769531 18.585938 -21.5625 17.265625 -21.5625 C 15.398438 -21.5625 13.625 -20.457031 11.9375 -18.25 C 10.414062 -16.25 9.222656 -13.710938 8.359375 -10.640625 C 8.328125 -9.992188 8.253906 -9.179688 8.140625 -8.203125 C 8.035156 -7.378906 7.984375 -6.578125 7.984375 -5.796875 C 7.984375 -5.296875 8.03125 -4.546875 8.125 -3.546875 C 8.226562 -2.554688 8.28125 -1.8125 8.28125 -1.3125 C 8.28125 -0.570312 8.050781 0.0234375 7.59375 0.484375 C 7.144531 0.953125 6.5625 1.1875 5.84375 1.1875 C 5.113281 1.1875 4.523438 0.953125 4.078125 0.484375 C 3.628906 0.0234375 3.40625 -0.570312 3.40625 -1.3125 C 3.40625 -1.8125 3.347656 -2.554688 3.234375 -3.546875 C 3.128906 -4.546875 3.078125 -5.296875 3.078125 -5.796875 C 3.078125 -7.503906 3.195312 -9.867188 3.4375 -12.890625 C 3.6875 -15.921875 3.8125 -18.289062 3.8125 -20 C 3.8125 -20.53125 3.78125 -21.316406 3.71875 -22.359375 C 3.65625 -23.398438 3.625 -24.1875 3.625 -24.71875 C 3.625 -25.4375 3.859375 -26.019531 4.328125 -26.46875 C 4.804688 -26.925781 5.394531 -27.15625 6.09375 -27.15625 C 7.613281 -27.15625 8.453125 -26.078125 8.609375 -23.921875 L 8.6875 -21.015625 C 11.46875 -24.734375 14.328125 -26.59375 17.265625 -26.59375 C 19.910156 -26.59375 21.757812 -25.421875 22.8125 -23.078125 C 23.519531 -21.523438 23.90625 -19.222656 23.96875 -16.171875 L 23.96875 -13.65625 L 23.953125 -11.34375 C 23.953125 -9.96875 24.128906 -8.1875 24.484375 -6 C 24.835938 -3.820312 25.015625 -2.054688 25.015625 -0.703125 C 25.015625 0.0234375 24.78125 0.617188 24.3125 1.078125 C 23.84375 1.535156 23.25 1.765625 22.53125 1.765625 Z M 22.53125 1.765625 "/></g></g></g><g fill="#000000" fill-opacity="1"><g transform="translate(670.20042, 860.824778)"><g><path d="M 9.78125 -19.546875 L 9.40625 -7.1875 C 9.40625 -5.875 9.335938 -3.953125 9.203125 -1.421875 C 9.035156 0.234375 8.222656 1.0625 6.765625 1.0625 C 5.140625 1.0625 4.328125 0.21875 4.328125 -1.46875 C 4.328125 -3.476562 4.414062 -6.492188 4.59375 -10.515625 C 4.78125 -14.535156 4.875 -17.546875 4.875 -19.546875 C 4.875 -22.171875 4.914062 -25.171875 5 -28.546875 C 5.082031 -31.921875 5.125 -34.914062 5.125 -37.53125 C 5.125 -39.1875 5.9375 -40.015625 7.5625 -40.015625 C 9.195312 -40.015625 10.015625 -39.1875 10.015625 -37.53125 C 10.015625 -34.914062 9.972656 -31.921875 9.890625 -28.546875 C 9.816406 -25.171875 9.78125 -22.171875 9.78125 -19.546875 Z M 9.78125 -19.546875 "/></g></g></g><g fill="#000000" fill-opacity="1"><g transform="translate(686.035997, 860.824778)"><g><path d="M 8.203125 -31.484375 C 7.410156 -31.484375 6.722656 -31.765625 6.140625 -32.328125 C 5.554688 -32.890625 5.265625 -33.570312 5.265625 -34.375 C 5.265625 -35.164062 5.554688 -35.84375 6.140625 -36.40625 C 6.722656 -36.976562 7.410156 -37.265625 8.203125 -37.265625 C 9.003906 -37.265625 9.691406 -36.976562 10.265625 -36.40625 C 10.835938 -35.84375 11.125 -35.164062 11.125 -34.375 C 11.125 -33.570312 10.835938 -32.890625 10.265625 -32.328125 C 9.691406 -31.765625 9.003906 -31.484375 8.203125 -31.484375 Z M 9.328125 -11.296875 C 9.328125 -10.296875 9.351562 -8.804688 9.40625 -6.828125 C 9.46875 -4.847656 9.5 -3.359375 9.5 -2.359375 C 9.5 -1.628906 9.273438 -1.03125 8.828125 -0.5625 C 8.378906 -0.101562 7.789062 0.125 7.0625 0.125 C 6.351562 0.125 5.769531 -0.101562 5.3125 -0.5625 C 4.851562 -1.03125 4.625 -1.628906 4.625 -2.359375 C 4.625 -3.359375 4.59375 -4.847656 4.53125 -6.828125 C 4.476562 -8.804688 4.453125 -10.296875 4.453125 -11.296875 C 4.453125 -12.847656 4.535156 -14.789062 4.703125 -17.125 C 4.867188 -19.457031 4.953125 -21.398438 4.953125 -22.953125 C 4.953125 -23.703125 5.175781 -24.304688 5.625 -24.765625 C 6.082031 -25.234375 6.671875 -25.46875 7.390625 -25.46875 C 8.097656 -25.46875 8.679688 -25.234375 9.140625 -24.765625 C 9.597656 -24.304688 9.828125 -23.703125 9.828125 -22.953125 C 9.828125 -21.398438 9.742188 -19.457031 9.578125 -17.125 C 9.410156 -14.789062 9.328125 -12.847656 9.328125 -11.296875 Z M 9.328125 -11.296875 "/></g></g></g><g fill="#000000" fill-opacity="1"><g transform="translate(702.194859, 860.824778)"><g><path d="M 22.53125 1.765625 C 21.101562 1.765625 20.300781 0.984375 20.125 -0.578125 L 19.421875 -6.015625 C 19.191406 -7.953125 19.078125 -9.769531 19.078125 -11.46875 C 19.078125 -11.925781 19.101562 -12.710938 19.15625 -13.828125 C 19.21875 -14.941406 19.25 -15.726562 19.25 -16.1875 C 19.25 -19.769531 18.585938 -21.5625 17.265625 -21.5625 C 15.398438 -21.5625 13.625 -20.457031 11.9375 -18.25 C 10.414062 -16.25 9.222656 -13.710938 8.359375 -10.640625 C 8.328125 -9.992188 8.253906 -9.179688 8.140625 -8.203125 C 8.035156 -7.378906 7.984375 -6.578125 7.984375 -5.796875 C 7.984375 -5.296875 8.03125 -4.546875 8.125 -3.546875 C 8.226562 -2.554688 8.28125 -1.8125 8.28125 -1.3125 C 8.28125 -0.570312 8.050781 0.0234375 7.59375 0.484375 C 7.144531 0.953125 6.5625 1.1875 5.84375 1.1875 C 5.113281 1.1875 4.523438 0.953125 4.078125 0.484375 C 3.628906 0.0234375 3.40625 -0.570312 3.40625 -1.3125 C 3.40625 -1.8125 3.347656 -2.554688 3.234375 -3.546875 C 3.128906 -4.546875 3.078125 -5.296875 3.078125 -5.796875 C 3.078125 -7.503906 3.195312 -9.867188 3.4375 -12.890625 C 3.6875 -15.921875 3.8125 -18.289062 3.8125 -20 C 3.8125 -20.53125 3.78125 -21.316406 3.71875 -22.359375 C 3.65625 -23.398438 3.625 -24.1875 3.625 -24.71875 C 3.625 -25.4375 3.859375 -26.019531 4.328125 -26.46875 C 4.804688 -26.925781 5.394531 -27.15625 6.09375 -27.15625 C 7.613281 -27.15625 8.453125 -26.078125 8.609375 -23.921875 L 8.6875 -21.015625 C 11.46875 -24.734375 14.328125 -26.59375 17.265625 -26.59375 C 19.910156 -26.59375 21.757812 -25.421875 22.8125 -23.078125 C 23.519531 -21.523438 23.90625 -19.222656 23.96875 -16.171875 L 23.96875 -13.65625 L 23.953125 -11.34375 C 23.953125 -9.96875 24.128906 -8.1875 24.484375 -6 C 24.835938 -3.820312 25.015625 -2.054688 25.015625 -0.703125 C 25.015625 0.0234375 24.78125 0.617188 24.3125 1.078125 C 23.84375 1.535156 23.25 1.765625 22.53125 1.765625 Z M 22.53125 1.765625 "/></g></g></g><g fill="#000000" fill-opacity="1"><g transform="translate(730.737989, 860.824778)"><g><path d="M 15.078125 1.140625 C 11.328125 1.140625 8.289062 0.203125 5.96875 -1.671875 C 3.425781 -3.742188 2.15625 -6.644531 2.15625 -10.375 C 2.15625 -14.6875 3.203125 -18.300781 5.296875 -21.21875 C 7.566406 -24.394531 10.601562 -25.984375 14.40625 -25.984375 C 17.15625 -25.984375 19.398438 -25.519531 21.140625 -24.59375 C 23.273438 -23.445312 24.34375 -21.691406 24.34375 -19.328125 C 24.34375 -17.671875 23.40625 -16.160156 21.53125 -14.796875 C 20.707031 -14.203125 18.953125 -13.273438 16.265625 -12.015625 L 6.765625 -7.515625 C 7.691406 -6.140625 8.847656 -5.101562 10.234375 -4.40625 C 11.617188 -3.707031 13.234375 -3.359375 15.078125 -3.359375 C 16.210938 -3.359375 17.554688 -3.570312 19.109375 -4 C 21.054688 -4.550781 22.3125 -5.269531 22.875 -6.15625 C 23.445312 -7.039062 24.054688 -7.484375 24.703125 -7.484375 C 25.273438 -7.484375 25.789062 -7.265625 26.25 -6.828125 C 26.707031 -6.390625 26.9375 -5.878906 26.9375 -5.296875 C 26.9375 -3.453125 25.453125 -1.867188 22.484375 -0.546875 C 19.941406 0.578125 17.472656 1.140625 15.078125 1.140625 Z M 14.40625 -21.515625 C 12.375 -21.515625 10.6875 -20.726562 9.34375 -19.15625 C 8.007812 -17.59375 7.007812 -15.238281 6.34375 -12.09375 L 13.984375 -15.71875 C 16.984375 -17.175781 19.117188 -18.445312 20.390625 -19.53125 C 18.960938 -20.851562 16.96875 -21.515625 14.40625 -21.515625 Z M 14.40625 -21.515625 "/></g></g></g><g fill="#000000" fill-opacity="1"><g transform="translate(760.52452, 860.824778)"><g/></g></g><g fill="#000000" fill-opacity="1"><g transform="translate(777.628366, 860.824778)"><g><path d="M 31.09375 0.75 C 29.5625 0.75 28.234375 -1.207031 27.109375 -5.125 C 26.679688 -6.613281 26.144531 -9.222656 25.5 -12.953125 C 23.800781 -12.722656 21.585938 -12.3125 18.859375 -11.71875 L 12.234375 -10.34375 C 11.410156 -8.175781 9.992188 -5.003906 7.984375 -0.828125 C 7.453125 0.109375 6.726562 0.578125 5.8125 0.578125 C 5.15625 0.578125 4.566406 0.335938 4.046875 -0.140625 C 3.523438 -0.628906 3.265625 -1.226562 3.265625 -1.9375 C 3.265625 -2.738281 4.515625 -5.765625 7.015625 -11.015625 C 6.734375 -11.453125 6.59375 -11.953125 6.59375 -12.515625 C 6.59375 -13.859375 7.40625 -14.71875 9.03125 -15.09375 C 10.914062 -18.644531 13.300781 -22.722656 16.1875 -27.328125 C 20.125 -33.617188 22.570312 -36.765625 23.53125 -36.765625 C 24.84375 -36.765625 25.738281 -35.851562 26.21875 -34.03125 L 27.78125 -25.671875 L 31.484375 -8.375 L 32.90625 -4.453125 C 33.382812 -3.109375 33.625 -2.210938 33.625 -1.765625 C 33.625 -1.054688 33.363281 -0.460938 32.84375 0.015625 C 32.332031 0.503906 31.75 0.75 31.09375 0.75 Z M 22.3125 -27.6875 L 15.203125 -16.21875 C 17.203125 -16.726562 20.242188 -17.347656 24.328125 -18.078125 Z M 22.3125 -27.6875 "/></g></g></g><g fill="#000000" fill-opacity="1"><g transform="translate(816.765268, 860.824778)"><g><path d="M 14.03125 0.875 C 12.375 0.875 10.550781 0.609375 8.5625 0.078125 L 8.5 11.96875 C 8.5 12.695312 8.269531 13.289062 7.8125 13.75 C 7.363281 14.21875 6.78125 14.453125 6.0625 14.453125 C 5.351562 14.453125 4.769531 14.21875 4.3125 13.75 C 3.851562 13.289062 3.625 12.695312 3.625 11.96875 L 3.703125 2.015625 L 3.703125 -7.90625 C 3.648438 -11.539062 3.523438 -14.847656 3.328125 -17.828125 L 2.953125 -22.875 C 2.953125 -24.050781 3.171875 -25.046875 3.609375 -25.859375 C 4.109375 -26.835938 4.828125 -27.328125 5.765625 -27.328125 C 6.410156 -27.328125 6.953125 -27.097656 7.390625 -26.640625 C 7.835938 -26.191406 8.0625 -25.632812 8.0625 -24.96875 C 8.0625 -24.820312 8.035156 -24.550781 7.984375 -24.15625 C 7.898438 -23.632812 7.84375 -23.160156 7.8125 -22.734375 C 9.238281 -23.710938 10.613281 -24.445312 11.9375 -24.9375 C 13.257812 -25.425781 14.53125 -25.671875 15.75 -25.671875 C 19.144531 -25.671875 21.628906 -24.160156 23.203125 -21.140625 C 24.453125 -18.753906 25.078125 -15.597656 25.078125 -11.671875 C 25.078125 -8.085938 24.113281 -5.132812 22.1875 -2.8125 C 20.144531 -0.351562 17.425781 0.875 14.03125 0.875 Z M 15.75 -20.6875 C 14.21875 -20.6875 12.835938 -20.347656 11.609375 -19.671875 C 10.734375 -19.191406 9.625 -18.3125 8.28125 -17.03125 C 8.5 -13.269531 8.609375 -9.316406 8.609375 -5.171875 C 10.410156 -4.472656 12.21875 -4.125 14.03125 -4.125 C 16.101562 -4.125 17.6875 -4.894531 18.78125 -6.4375 C 19.726562 -7.78125 20.203125 -9.523438 20.203125 -11.671875 C 20.203125 -14.679688 19.832031 -16.9375 19.09375 -18.4375 C 18.351562 -19.9375 17.238281 -20.6875 15.75 -20.6875 Z M 15.75 -20.6875 "/></g></g></g><g fill="#000000" fill-opacity="1"><g transform="translate(845.880362, 860.824778)"><g><path d="M 14.03125 0.875 C 12.375 0.875 10.550781 0.609375 8.5625 0.078125 L 8.5 11.96875 C 8.5 12.695312 8.269531 13.289062 7.8125 13.75 C 7.363281 14.21875 6.78125 14.453125 6.0625 14.453125 C 5.351562 14.453125 4.769531 14.21875 4.3125 13.75 C 3.851562 13.289062 3.625 12.695312 3.625 11.96875 L 3.703125 2.015625 L 3.703125 -7.90625 C 3.648438 -11.539062 3.523438 -14.847656 3.328125 -17.828125 L 2.953125 -22.875 C 2.953125 -24.050781 3.171875 -25.046875 3.609375 -25.859375 C 4.109375 -26.835938 4.828125 -27.328125 5.765625 -27.328125 C 6.410156 -27.328125 6.953125 -27.097656 7.390625 -26.640625 C 7.835938 -26.191406 8.0625 -25.632812 8.0625 -24.96875 C 8.0625 -24.820312 8.035156 -24.550781 7.984375 -24.15625 C 7.898438 -23.632812 7.84375 -23.160156 7.8125 -22.734375 C 9.238281 -23.710938 10.613281 -24.445312 11.9375 -24.9375 C 13.257812 -25.425781 14.53125 -25.671875 15.75 -25.671875 C 19.144531 -25.671875 21.628906 -24.160156 23.203125 -21.140625 C 24.453125 -18.753906 25.078125 -15.597656 25.078125 -11.671875 C 25.078125 -8.085938 24.113281 -5.132812 22.1875 -2.8125 C 20.144531 -0.351562 17.425781 0.875 14.03125 0.875 Z M 15.75 -20.6875 C 14.21875 -20.6875 12.835938 -20.347656 11.609375 -19.671875 C 10.734375 -19.191406 9.625 -18.3125 8.28125 -17.03125 C 8.5 -13.269531 8.609375 -9.316406 8.609375 -5.171875 C 10.410156 -4.472656 12.21875 -4.125 14.03125 -4.125 C 16.101562 -4.125 17.6875 -4.894531 18.78125 -6.4375 C 19.726562 -7.78125 20.203125 -9.523438 20.203125 -11.671875 C 20.203125 -14.679688 19.832031 -16.9375 19.09375 -18.4375 C 18.351562 -19.9375 17.238281 -20.6875 15.75 -20.6875 Z M 15.75 -20.6875 "/></g></g></g><g fill="#000000" fill-opacity="1"><g transform="translate(874.995457, 860.824778)"><g><path d="M 12.78125 1.46875 C 10 1.46875 7.601562 0.441406 5.59375 -1.609375 C 3.351562 -3.898438 2.175781 -6.976562 2.0625 -10.84375 C 1.96875 -14.59375 2.914062 -17.894531 4.90625 -20.75 C 7.21875 -24.113281 10.445312 -25.796875 14.59375 -25.796875 C 17.914062 -25.796875 20.429688 -24.273438 22.140625 -21.234375 C 23.492188 -18.785156 24.144531 -15.835938 24.09375 -12.390625 C 24.050781 -8.703125 23.09375 -5.554688 21.21875 -2.953125 C 19.09375 -0.00390625 16.28125 1.46875 12.78125 1.46875 Z M 14.28125 -20.75 C 11.84375 -20.757812 9.941406 -19.597656 8.578125 -17.265625 C 7.503906 -15.390625 6.96875 -13.25 6.96875 -10.84375 C 6.96875 -8.4375 7.617188 -6.5625 8.921875 -5.21875 C 10.023438 -4.113281 11.3125 -3.5625 12.78125 -3.5625 C 14.507812 -3.5625 15.992188 -4.191406 17.234375 -5.453125 C 18.640625 -6.835938 19.382812 -8.71875 19.46875 -11.09375 C 19.707031 -17.507812 17.976562 -20.726562 14.28125 -20.75 Z M 14.28125 -20.75 "/></g></g></g><g fill="#000000" fill-opacity="1"><g transform="translate(903.662927, 860.824778)"><g><path d="M 8.203125 -31.484375 C 7.410156 -31.484375 6.722656 -31.765625 6.140625 -32.328125 C 5.554688 -32.890625 5.265625 -33.570312 5.265625 -34.375 C 5.265625 -35.164062 5.554688 -35.84375 6.140625 -36.40625 C 6.722656 -36.976562 7.410156 -37.265625 8.203125 -37.265625 C 9.003906 -37.265625 9.691406 -36.976562 10.265625 -36.40625 C 10.835938 -35.84375 11.125 -35.164062 11.125 -34.375 C 11.125 -33.570312 10.835938 -32.890625 10.265625 -32.328125 C 9.691406 -31.765625 9.003906 -31.484375 8.203125 -31.484375 Z M 9.328125 -11.296875 C 9.328125 -10.296875 9.351562 -8.804688 9.40625 -6.828125 C 9.46875 -4.847656 9.5 -3.359375 9.5 -2.359375 C 9.5 -1.628906 9.273438 -1.03125 8.828125 -0.5625 C 8.378906 -0.101562 7.789062 0.125 7.0625 0.125 C 6.351562 0.125 5.769531 -0.101562 5.3125 -0.5625 C 4.851562 -1.03125 4.625 -1.628906 4.625 -2.359375 C 4.625 -3.359375 4.59375 -4.847656 4.53125 -6.828125 C 4.476562 -8.804688 4.453125 -10.296875 4.453125 -11.296875 C 4.453125 -12.847656 4.535156 -14.789062 4.703125 -17.125 C 4.867188 -19.457031 4.953125 -21.398438 4.953125 -22.953125 C 4.953125 -23.703125 5.175781 -24.304688 5.625 -24.765625 C 6.082031 -25.234375 6.671875 -25.46875 7.390625 -25.46875 C 8.097656 -25.46875 8.679688 -25.234375 9.140625 -24.765625 C 9.597656 -24.304688 9.828125 -23.703125 9.828125 -22.953125 C 9.828125 -21.398438 9.742188 -19.457031 9.578125 -17.125 C 9.410156 -14.789062 9.328125 -12.847656 9.328125 -11.296875 Z M 9.328125 -11.296875 "/></g></g></g><g fill="#000000" fill-opacity="1"><g transform="translate(919.8218, 860.824778)"><g><path d="M 22.53125 1.765625 C 21.101562 1.765625 20.300781 0.984375 20.125 -0.578125 L 19.421875 -6.015625 C 19.191406 -7.953125 19.078125 -9.769531 19.078125 -11.46875 C 19.078125 -11.925781 19.101562 -12.710938 19.15625 -13.828125 C 19.21875 -14.941406 19.25 -15.726562 19.25 -16.1875 C 19.25 -19.769531 18.585938 -21.5625 17.265625 -21.5625 C 15.398438 -21.5625 13.625 -20.457031 11.9375 -18.25 C 10.414062 -16.25 9.222656 -13.710938 8.359375 -10.640625 C 8.328125 -9.992188 8.253906 -9.179688 8.140625 -8.203125 C 8.035156 -7.378906 7.984375 -6.578125 7.984375 -5.796875 C 7.984375 -5.296875 8.03125 -4.546875 8.125 -3.546875 C 8.226562 -2.554688 8.28125 -1.8125 8.28125 -1.3125 C 8.28125 -0.570312 8.050781 0.0234375 7.59375 0.484375 C 7.144531 0.953125 6.5625 1.1875 5.84375 1.1875 C 5.113281 1.1875 4.523438 0.953125 4.078125 0.484375 C 3.628906 0.0234375 3.40625 -0.570312 3.40625 -1.3125 C 3.40625 -1.8125 3.347656 -2.554688 3.234375 -3.546875 C 3.128906 -4.546875 3.078125 -5.296875 3.078125 -5.796875 C 3.078125 -7.503906 3.195312 -9.867188 3.4375 -12.890625 C 3.6875 -15.921875 3.8125 -18.289062 3.8125 -20 C 3.8125 -20.53125 3.78125 -21.316406 3.71875 -22.359375 C 3.65625 -23.398438 3.625 -24.1875 3.625 -24.71875 C 3.625 -25.4375 3.859375 -26.019531 4.328125 -26.46875 C 4.804688 -26.925781 5.394531 -27.15625 6.09375 -27.15625 C 7.613281 -27.15625 8.453125 -26.078125 8.609375 -23.921875 L 8.6875 -21.015625 C 11.46875 -24.734375 14.328125 -26.59375 17.265625 -26.59375 C 19.910156 -26.59375 21.757812 -25.421875 22.8125 -23.078125 C 23.519531 -21.523438 23.90625 -19.222656 23.96875 -16.171875 L 23.96875 -13.65625 L 23.953125 -11.34375 C 23.953125 -9.96875 24.128906 -8.1875 24.484375 -6 C 24.835938 -3.820312 25.015625 -2.054688 25.015625 -0.703125 C 25.015625 0.0234375 24.78125 0.617188 24.3125 1.078125 C 23.84375 1.535156 23.25 1.765625 22.53125 1.765625 Z M 22.53125 1.765625 "/></g></g></g><g fill="#000000" fill-opacity="1"><g transform="translate(948.364919, 860.824778)"><g><path d="M 20.09375 -21.1875 C 19.75 -21.1875 19.335938 -21.203125 18.859375 -21.234375 C 18.390625 -21.273438 17.984375 -21.296875 17.640625 -21.296875 C 17.253906 -21.296875 16.125 -21.171875 14.25 -20.921875 L 14.71875 -6.21875 L 14.75 -5.125 L 14.78125 -3.859375 C 14.84375 -0.222656 13.96875 1.59375 12.15625 1.59375 C 11.5 1.59375 10.925781 1.375 10.4375 0.9375 C 9.945312 0.507812 9.703125 -0.0234375 9.703125 -0.671875 C 9.703125 -1.296875 9.722656 -2.238281 9.765625 -3.5 C 9.816406 -4.757812 9.84375 -5.707031 9.84375 -6.34375 L 9.359375 -20.875 C 8.140625 -20.914062 6.296875 -21.054688 3.828125 -21.296875 C 2.347656 -21.492188 1.609375 -22.3125 1.609375 -23.75 C 1.609375 -24.476562 1.832031 -25.082031 2.28125 -25.5625 C 2.726562 -26.050781 3.300781 -26.296875 4 -26.296875 L 9.234375 -25.859375 C 9.234375 -26.710938 9.191406 -27.847656 9.109375 -29.265625 C 9.035156 -30.679688 9 -31.703125 9 -32.328125 C 9 -33.023438 9.238281 -33.601562 9.71875 -34.0625 C 10.207031 -34.519531 10.796875 -34.75 11.484375 -34.75 C 12.984375 -34.75 13.859375 -33.53125 14.109375 -31.09375 C 14.148438 -30.476562 14.171875 -29.738281 14.171875 -28.875 L 14.125 -27.4375 L 14.109375 -25.890625 C 16.160156 -26.160156 17.335938 -26.296875 17.640625 -26.296875 C 19.359375 -26.296875 20.484375 -26.210938 21.015625 -26.046875 C 22.023438 -25.710938 22.53125 -24.929688 22.53125 -23.703125 C 22.53125 -22.972656 22.300781 -22.367188 21.84375 -21.890625 C 21.394531 -21.421875 20.8125 -21.1875 20.09375 -21.1875 Z M 20.09375 -21.1875 "/></g></g></g><g fill="#000000" fill-opacity="1"><g transform="translate(974.247172, 860.824778)"><g><path d="M 35.046875 2.0625 C 33.679688 2.0625 32.882812 1.34375 32.65625 -0.09375 C 32.351562 -1.914062 32.054688 -4.488281 31.765625 -7.8125 L 30.921875 -15.515625 C 30.753906 -16.660156 30.46875 -17.78125 30.0625 -18.875 C 29.5 -20.363281 28.890625 -21.109375 28.234375 -21.109375 C 27.617188 -21.109375 26.472656 -20.585938 24.796875 -19.546875 C 23.203125 -18.585938 22.15625 -17.816406 21.65625 -17.234375 C 21.644531 -15.671875 21.6875 -14.113281 21.78125 -12.5625 L 22.53125 -5.921875 C 22.84375 -3.296875 23 -1.128906 23 0.578125 C 23 1.304688 22.769531 1.90625 22.3125 2.375 C 21.863281 2.84375 21.28125 3.078125 20.5625 3.078125 C 19.851562 3.078125 19.269531 2.84375 18.8125 2.375 C 18.351562 1.90625 18.125 1.304688 18.125 0.578125 C 18.125 -1.429688 17.921875 -4.394531 17.515625 -8.3125 C 17.109375 -12.238281 16.90625 -15.207031 16.90625 -17.21875 C 16.90625 -18.96875 16.660156 -20.332031 16.171875 -21.3125 C 15.003906 -20.78125 13.828125 -19.921875 12.640625 -18.734375 L 9.703125 -15.453125 C 9.429688 -15.046875 9.007812 -14.519531 8.4375 -13.875 C 8.4375 -12.882812 8.34375 -11.414062 8.15625 -9.46875 C 7.976562 -7.53125 7.890625 -6.097656 7.890625 -5.171875 C 7.890625 -4.671875 7.96875 -3.972656 8.125 -3.078125 C 8.28125 -2.179688 8.359375 -1.535156 8.359375 -1.140625 C 8.359375 -0.460938 8.101562 0.101562 7.59375 0.5625 C 7.09375 1.03125 6.5 1.265625 5.8125 1.265625 C 3.945312 1.265625 3.015625 -0.863281 3.015625 -5.125 C 3.015625 -6.113281 3.101562 -7.59375 3.28125 -9.5625 C 3.46875 -11.539062 3.5625 -13.03125 3.5625 -14.03125 C 3.5625 -14.90625 3.476562 -16.222656 3.3125 -17.984375 C 3.15625 -19.742188 3.078125 -21.070312 3.078125 -21.96875 C 3.078125 -25.726562 3.925781 -27.609375 5.625 -27.609375 C 6.269531 -27.609375 6.859375 -27.328125 7.390625 -26.765625 C 7.929688 -26.203125 8.203125 -25.585938 8.203125 -24.921875 C 8.203125 -24.609375 8.160156 -24.117188 8.078125 -23.453125 C 7.992188 -22.785156 7.953125 -22.28125 7.953125 -21.9375 L 8.015625 -19.328125 C 8.867188 -21.097656 10.132812 -22.703125 11.8125 -24.140625 C 13.488281 -25.578125 14.914062 -26.296875 16.09375 -26.296875 C 18.695312 -26.296875 20.488281 -25 21.46875 -22.40625 C 22.375 -23.613281 23.457031 -24.519531 24.71875 -25.125 C 25.976562 -25.738281 27.421875 -26.046875 29.046875 -26.046875 C 31.816406 -26.046875 33.707031 -24.550781 34.71875 -21.5625 C 34.914062 -20.96875 35.253906 -18.640625 35.734375 -14.578125 C 36.203125 -11.722656 36.800781 -6.972656 37.53125 -0.328125 C 37.582031 0.335938 37.359375 0.898438 36.859375 1.359375 C 36.359375 1.828125 35.753906 2.0625 35.046875 2.0625 Z M 35.046875 2.0625 "/></g></g></g><g fill="#000000" fill-opacity="1"><g transform="translate(1015.696777, 860.824778)"><g><path d="M 15.078125 1.140625 C 11.328125 1.140625 8.289062 0.203125 5.96875 -1.671875 C 3.425781 -3.742188 2.15625 -6.644531 2.15625 -10.375 C 2.15625 -14.6875 3.203125 -18.300781 5.296875 -21.21875 C 7.566406 -24.394531 10.601562 -25.984375 14.40625 -25.984375 C 17.15625 -25.984375 19.398438 -25.519531 21.140625 -24.59375 C 23.273438 -23.445312 24.34375 -21.691406 24.34375 -19.328125 C 24.34375 -17.671875 23.40625 -16.160156 21.53125 -14.796875 C 20.707031 -14.203125 18.953125 -13.273438 16.265625 -12.015625 L 6.765625 -7.515625 C 7.691406 -6.140625 8.847656 -5.101562 10.234375 -4.40625 C 11.617188 -3.707031 13.234375 -3.359375 15.078125 -3.359375 C 16.210938 -3.359375 17.554688 -3.570312 19.109375 -4 C 21.054688 -4.550781 22.3125 -5.269531 22.875 -6.15625 C 23.445312 -7.039062 24.054688 -7.484375 24.703125 -7.484375 C 25.273438 -7.484375 25.789062 -7.265625 26.25 -6.828125 C 26.707031 -6.390625 26.9375 -5.878906 26.9375 -5.296875 C 26.9375 -3.453125 25.453125 -1.867188 22.484375 -0.546875 C 19.941406 0.578125 17.472656 1.140625 15.078125 1.140625 Z M 14.40625 -21.515625 C 12.375 -21.515625 10.6875 -20.726562 9.34375 -19.15625 C 8.007812 -17.59375 7.007812 -15.238281 6.34375 -12.09375 L 13.984375 -15.71875 C 16.984375 -17.175781 19.117188 -18.445312 20.390625 -19.53125 C 18.960938 -20.851562 16.96875 -21.515625 14.40625 -21.515625 Z M 14.40625 -21.515625 "/></g></g></g><g fill="#000000" fill-opacity="1"><g transform="translate(1045.483319, 860.824778)"><g><path d="M 22.53125 1.765625 C 21.101562 1.765625 20.300781 0.984375 20.125 -0.578125 L 19.421875 -6.015625 C 19.191406 -7.953125 19.078125 -9.769531 19.078125 -11.46875 C 19.078125 -11.925781 19.101562 -12.710938 19.15625 -13.828125 C 19.21875 -14.941406 19.25 -15.726562 19.25 -16.1875 C 19.25 -19.769531 18.585938 -21.5625 17.265625 -21.5625 C 15.398438 -21.5625 13.625 -20.457031 11.9375 -18.25 C 10.414062 -16.25 9.222656 -13.710938 8.359375 -10.640625 C 8.328125 -9.992188 8.253906 -9.179688 8.140625 -8.203125 C 8.035156 -7.378906 7.984375 -6.578125 7.984375 -5.796875 C 7.984375 -5.296875 8.03125 -4.546875 8.125 -3.546875 C 8.226562 -2.554688 8.28125 -1.8125 8.28125 -1.3125 C 8.28125 -0.570312 8.050781 0.0234375 7.59375 0.484375 C 7.144531 0.953125 6.5625 1.1875 5.84375 1.1875 C 5.113281 1.1875 4.523438 0.953125 4.078125 0.484375 C 3.628906 0.0234375 3.40625 -0.570312 3.40625 -1.3125 C 3.40625 -1.8125 3.347656 -2.554688 3.234375 -3.546875 C 3.128906 -4.546875 3.078125 -5.296875 3.078125 -5.796875 C 3.078125 -7.503906 3.195312 -9.867188 3.4375 -12.890625 C 3.6875 -15.921875 3.8125 -18.289062 3.8125 -20 C 3.8125 -20.53125 3.78125 -21.316406 3.71875 -22.359375 C 3.65625 -23.398438 3.625 -24.1875 3.625 -24.71875 C 3.625 -25.4375 3.859375 -26.019531 4.328125 -26.46875 C 4.804688 -26.925781 5.394531 -27.15625 6.09375 -27.15625 C 7.613281 -27.15625 8.453125 -26.078125 8.609375 -23.921875 L 8.6875 -21.015625 C 11.46875 -24.734375 14.328125 -26.59375 17.265625 -26.59375 C 19.910156 -26.59375 21.757812 -25.421875 22.8125 -23.078125 C 23.519531 -21.523438 23.90625 -19.222656 23.96875 -16.171875 L 23.96875 -13.65625 L 23.953125 -11.34375 C 23.953125 -9.96875 24.128906 -8.1875 24.484375 -6 C 24.835938 -3.820312 25.015625 -2.054688 25.015625 -0.703125 C 25.015625 0.0234375 24.78125 0.617188 24.3125 1.078125 C 23.84375 1.535156 23.25 1.765625 22.53125 1.765625 Z M 22.53125 1.765625 "/></g></g></g><g fill="#000000" fill-opacity="1"><g transform="translate(1074.026483, 860.824778)"><g><path d="M 20.09375 -21.1875 C 19.75 -21.1875 19.335938 -21.203125 18.859375 -21.234375 C 18.390625 -21.273438 17.984375 -21.296875 17.640625 -21.296875 C 17.253906 -21.296875 16.125 -21.171875 14.25 -20.921875 L 14.71875 -6.21875 L 14.75 -5.125 L 14.78125 -3.859375 C 14.84375 -0.222656 13.96875 1.59375 12.15625 1.59375 C 11.5 1.59375 10.925781 1.375 10.4375 0.9375 C 9.945312 0.507812 9.703125 -0.0234375 9.703125 -0.671875 C 9.703125 -1.296875 9.722656 -2.238281 9.765625 -3.5 C 9.816406 -4.757812 9.84375 -5.707031 9.84375 -6.34375 L 9.359375 -20.875 C 8.140625 -20.914062 6.296875 -21.054688 3.828125 -21.296875 C 2.347656 -21.492188 1.609375 -22.3125 1.609375 -23.75 C 1.609375 -24.476562 1.832031 -25.082031 2.28125 -25.5625 C 2.726562 -26.050781 3.300781 -26.296875 4 -26.296875 L 9.234375 -25.859375 C 9.234375 -26.710938 9.191406 -27.847656 9.109375 -29.265625 C 9.035156 -30.679688 9 -31.703125 9 -32.328125 C 9 -33.023438 9.238281 -33.601562 9.71875 -34.0625 C 10.207031 -34.519531 10.796875 -34.75 11.484375 -34.75 C 12.984375 -34.75 13.859375 -33.53125 14.109375 -31.09375 C 14.148438 -30.476562 14.171875 -29.738281 14.171875 -28.875 L 14.125 -27.4375 L 14.109375 -25.890625 C 16.160156 -26.160156 17.335938 -26.296875 17.640625 -26.296875 C 19.359375 -26.296875 20.484375 -26.210938 21.015625 -26.046875 C 22.023438 -25.710938 22.53125 -24.929688 22.53125 -23.703125 C 22.53125 -22.972656 22.300781 -22.367188 21.84375 -21.890625 C 21.394531 -21.421875 20.8125 -21.1875 20.09375 -21.1875 Z M 20.09375 -21.1875 "/></g></g></g><g fill="#000000" fill-opacity="1"><g transform="translate(1099.908714, 860.824778)"><g/></g></g><g fill="#000000" fill-opacity="1"><g transform="translate(1117.012549, 860.824778)"><g><path d="M 22.875 1.640625 C 22.5625 1.640625 21.992188 1.273438 21.171875 0.546875 C 20.421875 -0.128906 19.863281 -0.734375 19.5 -1.265625 C 17.90625 -0.398438 16.503906 0.25 15.296875 0.6875 C 14.085938 1.125 13.078125 1.34375 12.265625 1.34375 C 8.378906 1.34375 5.550781 0.25 3.78125 -1.9375 C 2.101562 -4 1.265625 -7.148438 1.265625 -11.390625 C 1.265625 -15.398438 2.644531 -18.832031 5.40625 -21.6875 C 8.164062 -24.539062 11.460938 -25.96875 15.296875 -25.96875 C 16.734375 -25.96875 18.347656 -25.59375 20.140625 -24.84375 C 22.398438 -23.914062 23.53125 -22.796875 23.53125 -21.484375 C 23.53125 -21.035156 23.363281 -20.640625 23.03125 -20.296875 C 22.863281 -19.660156 22.734375 -18.617188 22.640625 -17.171875 C 22.554688 -15.734375 22.503906 -13.890625 22.484375 -11.640625 C 22.460938 -9.585938 22.601562 -7.960938 22.90625 -6.765625 C 23.070312 -6.035156 23.59375 -4.578125 24.46875 -2.390625 C 24.582031 -2.085938 24.773438 -1.644531 25.046875 -1.0625 L 25.1875 -0.640625 C 25.1875 0.015625 24.953125 0.554688 24.484375 0.984375 C 24.023438 1.421875 23.488281 1.640625 22.875 1.640625 Z M 17.703125 -15.640625 C 17.703125 -16.359375 17.75 -17.132812 17.84375 -17.96875 C 17.9375 -18.800781 18.070312 -19.691406 18.25 -20.640625 C 17.632812 -20.953125 17.109375 -21.179688 16.671875 -21.328125 C 16.234375 -21.484375 15.882812 -21.5625 15.625 -21.5625 C 13.050781 -21.5625 10.832031 -20.507812 8.96875 -18.40625 C 7.101562 -16.3125 6.171875 -13.898438 6.171875 -11.171875 C 6.171875 -8.453125 6.648438 -6.410156 7.609375 -5.046875 C 8.566406 -3.691406 10.007812 -3.015625 11.9375 -3.015625 C 13.53125 -3.015625 14.882812 -3.300781 16 -3.875 C 16.59375 -4.195312 17.425781 -4.828125 18.5 -5.765625 C 17.96875 -10.160156 17.703125 -13.453125 17.703125 -15.640625 Z M 17.703125 -15.640625 "/></g></g></g><g fill="#000000" fill-opacity="1"><g transform="translate(1144.958881, 860.824778)"><g><path d="M 22.53125 1.765625 C 21.101562 1.765625 20.300781 0.984375 20.125 -0.578125 L 19.421875 -6.015625 C 19.191406 -7.953125 19.078125 -9.769531 19.078125 -11.46875 C 19.078125 -11.925781 19.101562 -12.710938 19.15625 -13.828125 C 19.21875 -14.941406 19.25 -15.726562 19.25 -16.1875 C 19.25 -19.769531 18.585938 -21.5625 17.265625 -21.5625 C 15.398438 -21.5625 13.625 -20.457031 11.9375 -18.25 C 10.414062 -16.25 9.222656 -13.710938 8.359375 -10.640625 C 8.328125 -9.992188 8.253906 -9.179688 8.140625 -8.203125 C 8.035156 -7.378906 7.984375 -6.578125 7.984375 -5.796875 C 7.984375 -5.296875 8.03125 -4.546875 8.125 -3.546875 C 8.226562 -2.554688 8.28125 -1.8125 8.28125 -1.3125 C 8.28125 -0.570312 8.050781 0.0234375 7.59375 0.484375 C 7.144531 0.953125 6.5625 1.1875 5.84375 1.1875 C 5.113281 1.1875 4.523438 0.953125 4.078125 0.484375 C 3.628906 0.0234375 3.40625 -0.570312 3.40625 -1.3125 C 3.40625 -1.8125 3.347656 -2.554688 3.234375 -3.546875 C 3.128906 -4.546875 3.078125 -5.296875 3.078125 -5.796875 C 3.078125 -7.503906 3.195312 -9.867188 3.4375 -12.890625 C 3.6875 -15.921875 3.8125 -18.289062 3.8125 -20 C 3.8125 -20.53125 3.78125 -21.316406 3.71875 -22.359375 C 3.65625 -23.398438 3.625 -24.1875 3.625 -24.71875 C 3.625 -25.4375 3.859375 -26.019531 4.328125 -26.46875 C 4.804688 -26.925781 5.394531 -27.15625 6.09375 -27.15625 C 7.613281 -27.15625 8.453125 -26.078125 8.609375 -23.921875 L 8.6875 -21.015625 C 11.46875 -24.734375 14.328125 -26.59375 17.265625 -26.59375 C 19.910156 -26.59375 21.757812 -25.421875 22.8125 -23.078125 C 23.519531 -21.523438 23.90625 -19.222656 23.96875 -16.171875 L 23.96875 -13.65625 L 23.953125 -11.34375 C 23.953125 -9.96875 24.128906 -8.1875 24.484375 -6 C 24.835938 -3.820312 25.015625 -2.054688 25.015625 -0.703125 C 25.015625 0.0234375 24.78125 0.617188 24.3125 1.078125 C 23.84375 1.535156 23.25 1.765625 22.53125 1.765625 Z M 22.53125 1.765625 "/></g></g></g><g fill="#000000" fill-opacity="1"><g transform="translate(1173.502, 860.824778)"><g><path d="M 26.359375 -21.96875 C 26.160156 -19.53125 26.0625 -17.09375 26.0625 -14.65625 C 26.0625 -9.132812 26.320312 -4.960938 26.84375 -2.140625 C 26.875 -1.910156 26.890625 -1.71875 26.890625 -1.5625 C 26.890625 -0.90625 26.65625 -0.363281 26.1875 0.0625 C 25.726562 0.5 25.191406 0.71875 24.578125 0.71875 C 23.546875 0.71875 22.789062 -0.0234375 22.3125 -1.515625 C 21.113281 -0.640625 19.875 0.0195312 18.59375 0.46875 C 17.3125 0.914062 15.972656 1.140625 14.578125 1.140625 C 11.140625 1.140625 8.296875 0 6.046875 -2.28125 C 3.722656 -4.625 2.5625 -7.628906 2.5625 -11.296875 C 2.5625 -15.722656 3.734375 -19.269531 6.078125 -21.9375 C 8.421875 -24.601562 11.46875 -25.9375 15.21875 -25.9375 C 17.144531 -25.9375 18.628906 -25.640625 19.671875 -25.046875 L 22.015625 -23.328125 C 22.242188 -30.304688 22.515625 -35.007812 22.828125 -37.4375 C 23.046875 -38.90625 23.800781 -39.640625 25.09375 -39.640625 C 26.601562 -39.640625 27.359375 -38.835938 27.359375 -37.234375 C 27.359375 -34.929688 27.023438 -29.84375 26.359375 -21.96875 Z M 15.328125 -21.3125 C 12.535156 -21.3125 10.441406 -20.484375 9.046875 -18.828125 C 7.660156 -17.179688 6.96875 -14.703125 6.96875 -11.390625 C 6.96875 -9.253906 7.722656 -7.414062 9.234375 -5.875 C 10.753906 -4.332031 12.535156 -3.5625 14.578125 -3.5625 C 15.972656 -3.5625 17.148438 -3.816406 18.109375 -4.328125 C 18.671875 -4.628906 19.59375 -5.316406 20.875 -6.390625 C 21.113281 -6.609375 21.351562 -6.863281 21.59375 -7.15625 L 21.515625 -11.46875 L 21.53125 -14.34375 L 21.59375 -17.28125 C 20.957031 -18.625 20.117188 -19.628906 19.078125 -20.296875 C 18.035156 -20.972656 16.785156 -21.3125 15.328125 -21.3125 Z M 15.328125 -21.3125 "/></g></g></g><g fill="#ff751f" fill-opacity="1"><g transform="translate(1205.31264, 860.824778)"><g/></g></g><g fill="#ff751f" fill-opacity="1"><g transform="translate(1222.416486, 860.824778)"><g><path d="M 35.046875 2.0625 C 33.679688 2.0625 32.882812 1.34375 32.65625 -0.09375 C 32.351562 -1.914062 32.054688 -4.488281 31.765625 -7.8125 L 30.921875 -15.515625 C 30.753906 -16.660156 30.46875 -17.78125 30.0625 -18.875 C 29.5 -20.363281 28.890625 -21.109375 28.234375 -21.109375 C 27.617188 -21.109375 26.472656 -20.585938 24.796875 -19.546875 C 23.203125 -18.585938 22.15625 -17.816406 21.65625 -17.234375 C 21.644531 -15.671875 21.6875 -14.113281 21.78125 -12.5625 L 22.53125 -5.921875 C 22.84375 -3.296875 23 -1.128906 23 0.578125 C 23 1.304688 22.769531 1.90625 22.3125 2.375 C 21.863281 2.84375 21.28125 3.078125 20.5625 3.078125 C 19.851562 3.078125 19.269531 2.84375 18.8125 2.375 C 18.351562 1.90625 18.125 1.304688 18.125 0.578125 C 18.125 -1.429688 17.921875 -4.394531 17.515625 -8.3125 C 17.109375 -12.238281 16.90625 -15.207031 16.90625 -17.21875 C 16.90625 -18.96875 16.660156 -20.332031 16.171875 -21.3125 C 15.003906 -20.78125 13.828125 -19.921875 12.640625 -18.734375 L 9.703125 -15.453125 C 9.429688 -15.046875 9.007812 -14.519531 8.4375 -13.875 C 8.4375 -12.882812 8.34375 -11.414062 8.15625 -9.46875 C 7.976562 -7.53125 7.890625 -6.097656 7.890625 -5.171875 C 7.890625 -4.671875 7.96875 -3.972656 8.125 -3.078125 C 8.28125 -2.179688 8.359375 -1.535156 8.359375 -1.140625 C 8.359375 -0.460938 8.101562 0.101562 7.59375 0.5625 C 7.09375 1.03125 6.5 1.265625 5.8125 1.265625 C 3.945312 1.265625 3.015625 -0.863281 3.015625 -5.125 C 3.015625 -6.113281 3.101562 -7.59375 3.28125 -9.5625 C 3.46875 -11.539062 3.5625 -13.03125 3.5625 -14.03125 C 3.5625 -14.90625 3.476562 -16.222656 3.3125 -17.984375 C 3.15625 -19.742188 3.078125 -21.070312 3.078125 -21.96875 C 3.078125 -25.726562 3.925781 -27.609375 5.625 -27.609375 C 6.269531 -27.609375 6.859375 -27.328125 7.390625 -26.765625 C 7.929688 -26.203125 8.203125 -25.585938 8.203125 -24.921875 C 8.203125 -24.609375 8.160156 -24.117188 8.078125 -23.453125 C 7.992188 -22.785156 7.953125 -22.28125 7.953125 -21.9375 L 8.015625 -19.328125 C 8.867188 -21.097656 10.132812 -22.703125 11.8125 -24.140625 C 13.488281 -25.578125 14.914062 -26.296875 16.09375 -26.296875 C 18.695312 -26.296875 20.488281 -25 21.46875 -22.40625 C 22.375 -23.613281 23.457031 -24.519531 24.71875 -25.125 C 25.976562 -25.738281 27.421875 -26.046875 29.046875 -26.046875 C 31.816406 -26.046875 33.707031 -24.550781 34.71875 -21.5625 C 34.914062 -20.96875 35.253906 -18.640625 35.734375 -14.578125 C 36.203125 -11.722656 36.800781 -6.972656 37.53125 -0.328125 C 37.582031 0.335938 37.359375 0.898438 36.859375 1.359375 C 36.359375 1.828125 35.753906 2.0625 35.046875 2.0625 Z M 35.046875 2.0625 "/></g></g></g><g fill="#ff751f" fill-opacity="1"><g transform="translate(1263.866113, 860.824778)"><g><path d="M 12.78125 1.46875 C 10 1.46875 7.601562 0.441406 5.59375 -1.609375 C 3.351562 -3.898438 2.175781 -6.976562 2.0625 -10.84375 C 1.96875 -14.59375 2.914062 -17.894531 4.90625 -20.75 C 7.21875 -24.113281 10.445312 -25.796875 14.59375 -25.796875 C 17.914062 -25.796875 20.429688 -24.273438 22.140625 -21.234375 C 23.492188 -18.785156 24.144531 -15.835938 24.09375 -12.390625 C 24.050781 -8.703125 23.09375 -5.554688 21.21875 -2.953125 C 19.09375 -0.00390625 16.28125 1.46875 12.78125 1.46875 Z M 14.28125 -20.75 C 11.84375 -20.757812 9.941406 -19.597656 8.578125 -17.265625 C 7.503906 -15.390625 6.96875 -13.25 6.96875 -10.84375 C 6.96875 -8.4375 7.617188 -6.5625 8.921875 -5.21875 C 10.023438 -4.113281 11.3125 -3.5625 12.78125 -3.5625 C 14.507812 -3.5625 15.992188 -4.191406 17.234375 -5.453125 C 18.640625 -6.835938 19.382812 -8.71875 19.46875 -11.09375 C 19.707031 -17.507812 17.976562 -20.726562 14.28125 -20.75 Z M 14.28125 -20.75 "/></g></g></g><g fill="#ff751f" fill-opacity="1"><g transform="translate(1292.533583, 860.824778)"><g><path d="M 22.8125 -18.375 C 22.695312 -16.300781 21.863281 -15.265625 20.3125 -15.265625 C 18.894531 -15.265625 18.1875 -16.085938 18.1875 -17.734375 C 18.1875 -18.046875 18.160156 -18.625 18.109375 -19.46875 L 18.03125 -21.5625 C 15.414062 -21.25 13.316406 -20.507812 11.734375 -19.34375 C 10.265625 -18.269531 9.039062 -16.644531 8.0625 -14.46875 L 8.109375 -0.84375 C 8.109375 0.832031 7.285156 1.671875 5.640625 1.671875 C 4.179688 1.671875 3.453125 0.832031 3.453125 -0.84375 L 3.453125 -18.3125 C 3.453125 -18.851562 3.472656 -19.671875 3.515625 -20.765625 C 3.554688 -21.859375 3.578125 -22.679688 3.578125 -23.234375 C 3.578125 -24.910156 4.304688 -25.75 5.765625 -25.75 C 7.390625 -25.75 8.210938 -24.367188 8.234375 -21.609375 C 11.421875 -24.679688 14.953125 -26.21875 18.828125 -26.21875 C 20.171875 -26.21875 21.171875 -25.710938 21.828125 -24.703125 C 22.492188 -23.691406 22.828125 -22.164062 22.828125 -20.125 C 22.828125 -19.257812 22.820312 -18.675781 22.8125 -18.375 Z M 22.8125 -18.375 "/></g></g></g><g fill="#ff751f" fill-opacity="1"><g transform="translate(1318.888329, 860.824778)"><g><path d="M 15.078125 1.140625 C 11.328125 1.140625 8.289062 0.203125 5.96875 -1.671875 C 3.425781 -3.742188 2.15625 -6.644531 2.15625 -10.375 C 2.15625 -14.6875 3.203125 -18.300781 5.296875 -21.21875 C 7.566406 -24.394531 10.601562 -25.984375 14.40625 -25.984375 C 17.15625 -25.984375 19.398438 -25.519531 21.140625 -24.59375 C 23.273438 -23.445312 24.34375 -21.691406 24.34375 -19.328125 C 24.34375 -17.671875 23.40625 -16.160156 21.53125 -14.796875 C 20.707031 -14.203125 18.953125 -13.273438 16.265625 -12.015625 L 6.765625 -7.515625 C 7.691406 -6.140625 8.847656 -5.101562 10.234375 -4.40625 C 11.617188 -3.707031 13.234375 -3.359375 15.078125 -3.359375 C 16.210938 -3.359375 17.554688 -3.570312 19.109375 -4 C 21.054688 -4.550781 22.3125 -5.269531 22.875 -6.15625 C 23.445312 -7.039062 24.054688 -7.484375 24.703125 -7.484375 C 25.273438 -7.484375 25.789062 -7.265625 26.25 -6.828125 C 26.707031 -6.390625 26.9375 -5.878906 26.9375 -5.296875 C 26.9375 -3.453125 25.453125 -1.867188 22.484375 -0.546875 C 19.941406 0.578125 17.472656 1.140625 15.078125 1.140625 Z M 14.40625 -21.515625 C 12.375 -21.515625 10.6875 -20.726562 9.34375 -19.15625 C 8.007812 -17.59375 7.007812 -15.238281 6.34375 -12.09375 L 13.984375 -15.71875 C 16.984375 -17.175781 19.117188 -18.445312 20.390625 -19.53125 C 18.960938 -20.851562 16.96875 -21.515625 14.40625 -21.515625 Z M 14.40625 -21.515625 "/></g></g></g></svg>